<?xml version="1.0" encoding="UTF-8"?>
<!DOCTYPE svg PUBLIC "-//W3C//DTD SVG 1.1//EN" "http://www.w3.org/Graphics/SVG/1.1/DTD/svg11.dtd">
<svg xmlns="http://www.w3.org/2000/svg" version="1.1" width="500px" height="500px" style="shape-rendering:geometricPrecision; text-rendering:geometricPrecision; image-rendering:optimizeQuality; fill-rule:evenodd; clip-rule:evenodd" xmlns:xlink="http://www.w3.org/1999/xlink">
<g><path style="opacity:0.992" fill="#d8bc97" d="M 375.5,209.5 C 375.616,206.09 373.95,204.756 370.5,205.5C 370.5,206.833 370.5,208.167 370.5,209.5C 369.549,208.081 369.216,206.415 369.5,204.5C 371.695,203.392 373.695,203.559 375.5,205C 376.801,206.616 376.801,208.116 375.5,209.5 Z"/></g>
<g><path style="opacity:0.4" fill="#1b1716" d="M 123.5,205.5 C 122.791,206.404 121.791,206.737 120.5,206.5C 120.5,207.833 120.5,209.167 120.5,210.5C 116.576,208.834 116.576,207.001 120.5,205C 121.749,204.26 122.749,204.427 123.5,205.5 Z"/></g>
<g><path style="opacity:0.173" fill="#79684b" d="M 123.5,205.5 C 124.5,205.833 125.167,206.5 125.5,207.5C 124.167,207.5 122.833,207.5 121.5,207.5C 121.737,208.791 121.404,209.791 120.5,210.5C 120.5,209.167 120.5,207.833 120.5,206.5C 121.791,206.737 122.791,206.404 123.5,205.5 Z"/></g>
<g><path style="opacity:1" fill="#e0bc86" d="M 142.5,207.5 C 142.5,207.833 142.5,208.167 142.5,208.5C 140.167,208.5 137.833,208.5 135.5,208.5C 131.116,208.174 126.783,208.508 122.5,209.5C 124.969,210.168 127.302,210.835 129.5,211.5C 126.5,211.5 123.5,211.5 120.5,211.5C 120.5,211.167 120.5,210.833 120.5,210.5C 121.404,209.791 121.737,208.791 121.5,207.5C 122.833,207.5 124.167,207.5 125.5,207.5C 131.323,206.418 136.99,206.418 142.5,207.5 Z"/></g>
<g><path style="opacity:0.991" fill="#edbe6e" d="M 248.5,207.5 C 248.5,208.167 248.5,208.833 248.5,209.5C 246.806,210.527 245.473,211.861 244.5,213.5C 244.5,211.167 244.5,208.833 244.5,206.5C 246.099,206.232 247.432,206.566 248.5,207.5 Z"/></g>
<g><path style="opacity:0.98" fill="#e4c277" d="M 375.5,209.5 C 373.833,210.833 372.167,210.833 370.5,209.5C 370.5,208.167 370.5,206.833 370.5,205.5C 373.95,204.756 375.616,206.09 375.5,209.5 Z"/></g>
<g><path style="opacity:1" fill="#e9c16d" d="M 135.5,208.5 C 137.833,208.5 140.167,208.5 142.5,208.5C 142.5,209.5 142.5,210.5 142.5,211.5C 140.167,211.5 137.833,211.5 135.5,211.5C 135.5,210.5 135.5,209.5 135.5,208.5 Z"/></g>
<g><path style="opacity:0.757" fill="#d7ba8a" d="M 248.5,207.5 C 248.833,207.5 249.167,207.5 249.5,207.5C 249.184,215.752 249.518,223.919 250.5,232C 247.961,232.796 245.628,232.629 243.5,231.5C 243.833,231.5 244.167,231.5 244.5,231.5C 246.099,231.768 247.432,231.434 248.5,230.5C 248.5,228.167 248.5,225.833 248.5,223.5C 248.5,218.833 248.5,214.167 248.5,209.5C 248.5,208.833 248.5,208.167 248.5,207.5 Z"/></g>
<g><path style="opacity:1" fill="#ecbd6e" d="M 135.5,208.5 C 135.5,209.5 135.5,210.5 135.5,211.5C 134.596,212.209 134.263,213.209 134.5,214.5C 133.292,213.766 131.959,213.433 130.5,213.5C 130.5,212.833 130.167,212.5 129.5,212.5C 129.5,212.167 129.5,211.833 129.5,211.5C 127.302,210.835 124.969,210.168 122.5,209.5C 126.783,208.508 131.116,208.174 135.5,208.5 Z"/></g>
<g><path style="opacity:1" fill="#dfbd88" d="M 215.5,208.5 C 215.167,208.5 214.833,208.5 214.5,208.5C 212.5,208.5 210.5,208.5 208.5,208.5C 208.5,209.5 208.5,210.5 208.5,211.5C 207.167,212.833 205.833,214.167 204.5,215.5C 204.764,210.921 206.931,207.921 211,206.5C 213.008,206.307 214.508,206.974 215.5,208.5 Z"/></g>
<g><path style="opacity:0.925" fill="#d4b285" d="M 249.5,207.5 C 249.167,207.5 248.833,207.5 248.5,207.5C 247.432,206.566 246.099,206.232 244.5,206.5C 244.5,208.833 244.5,211.167 244.5,213.5C 244.167,213.5 243.833,213.5 243.5,213.5C 243.5,210.833 243.5,208.167 243.5,205.5C 246.082,205.025 248.082,205.692 249.5,207.5 Z"/></g>
<g><path style="opacity:1" fill="#ebbe74" d="M 148.5,209.5 C 149.5,209.5 150.5,209.5 151.5,209.5C 151.232,211.099 151.566,212.432 152.5,213.5C 152.833,213.5 153.167,213.5 153.5,213.5C 153.5,213.833 153.5,214.167 153.5,214.5C 152.833,214.833 152.167,215.167 151.5,215.5C 150.222,215.218 149.222,214.551 148.5,213.5C 148.5,212.167 148.5,210.833 148.5,209.5 Z"/></g>
<g><path style="opacity:1" fill="#eabe6b" d="M 214.5,208.5 C 214.702,210.95 214.369,213.283 213.5,215.5C 213.672,216.492 213.338,217.158 212.5,217.5C 211.596,216.791 211.263,215.791 211.5,214.5C 211.158,213.662 210.492,213.328 209.5,213.5C 209.167,212.833 208.833,212.167 208.5,211.5C 208.5,210.5 208.5,209.5 208.5,208.5C 210.5,208.5 212.5,208.5 214.5,208.5 Z"/></g>
<g><path style="opacity:0.988" fill="#edbf71" d="M 208.5,211.5 C 208.833,212.167 209.167,212.833 209.5,213.5C 209.25,215.941 208.25,217.941 206.5,219.5C 205.778,219.082 205.278,218.416 205,217.5C 204.536,218.094 204.369,218.761 204.5,219.5C 203.833,219.5 203.167,219.5 202.5,219.5C 202.66,217.847 203.326,216.514 204.5,215.5C 205.833,214.167 207.167,212.833 208.5,211.5 Z"/></g>
<g><path style="opacity:0.278" fill="#d0ba94" d="M 299.5,217.5 C 299.5,216.167 299.5,214.833 299.5,213.5C 298.167,213.5 296.833,213.5 295.5,213.5C 295.771,215.38 295.104,216.713 293.5,217.5C 294.038,215.883 294.371,214.216 294.5,212.5C 296.924,212.192 299.257,212.526 301.5,213.5C 301.006,215.026 300.339,216.359 299.5,217.5 Z"/></g>
<g><path style="opacity:1" fill="#e6bb7d" d="M 165.5,215.5 C 161.536,215.571 157.536,215.237 153.5,214.5C 153.5,214.167 153.5,213.833 153.5,213.5C 155.677,213.414 157.677,212.747 159.5,211.5C 161.911,212.361 163.911,213.694 165.5,215.5 Z"/></g>
<g><path style="opacity:1" fill="#ddbb87" d="M 190.5,215.5 C 189.391,215.443 188.391,215.11 187.5,214.5C 183.766,214.323 180.099,214.656 176.5,215.5C 178.456,213.452 180.956,212.452 184,212.5C 186.802,212.32 188.969,213.32 190.5,215.5 Z"/></g>
<g><path style="opacity:1" fill="#dcbb87" d="M 243.5,214.5 C 242.368,215.354 241.035,215.354 239.5,214.5C 237.097,214.448 234.764,214.781 232.5,215.5C 231.833,215.5 231.167,215.5 230.5,215.5C 234.606,212.056 238.939,211.722 243.5,214.5 Z"/></g>
<g><path style="opacity:0.988" fill="#dfc185" d="M 347.5,215.5 C 345.565,214.85 343.565,214.517 341.5,214.5C 340.5,214.5 339.5,214.5 338.5,214.5C 337.833,214.5 337.167,214.5 336.5,214.5C 337.777,213.102 339.443,212.436 341.5,212.5C 344.102,212.467 346.102,213.467 347.5,215.5 Z"/></g>
<g><path style="opacity:1" fill="#dfc28b" d="M 359.5,213.5 C 356.375,214.479 353.042,214.813 349.5,214.5C 352.524,212.224 355.857,211.891 359.5,213.5 Z"/></g>
<g><path style="opacity:0.682" fill="#cda886" d="M 120.5,211.5 C 123.5,211.5 126.5,211.5 129.5,211.5C 129.5,211.833 129.5,212.167 129.5,212.5C 129.664,215.187 129.497,217.854 129,220.5C 128.722,221.416 128.222,222.082 127.5,222.5C 128.207,219.214 128.54,215.881 128.5,212.5C 125.615,212.806 122.948,212.473 120.5,211.5 Z"/></g>
<g><path style="opacity:1" fill="#edc067" d="M 130.5,213.5 C 131.959,213.433 133.292,213.766 134.5,214.5C 134.5,216.167 134.5,217.833 134.5,219.5C 131.224,218.878 129.891,216.878 130.5,213.5 Z"/></g>
<g><path style="opacity:1" fill="#edbd6d" d="M 187.5,214.5 C 185.629,215.797 183.629,216.797 181.5,217.5C 180.167,217.5 178.833,217.5 177.5,217.5C 177.261,219.467 177.594,221.301 178.5,223C 177.244,223.417 176.577,224.25 176.5,225.5C 175.833,225.167 175.167,224.833 174.5,224.5C 174.928,221.436 175.594,218.436 176.5,215.5C 180.099,214.656 183.766,214.323 187.5,214.5 Z"/></g>
<g><path style="opacity:0.998" fill="#e7bf79" d="M 214.5,208.5 C 214.833,208.5 215.167,208.5 215.5,208.5C 216.213,211.594 217.213,214.594 218.5,217.5C 217.609,216.89 216.609,216.557 215.5,216.5C 215.158,215.662 214.492,215.328 213.5,215.5C 214.369,213.283 214.702,210.95 214.5,208.5 Z"/></g>
<g><path style="opacity:1" fill="#d2b986" d="M 285.5,215.5 C 283.958,214.699 282.292,214.366 280.5,214.5C 280.5,215.5 280.5,216.5 280.5,217.5C 279.069,216.22 278.402,214.553 278.5,212.5C 280.527,212.338 282.527,212.505 284.5,213C 285.252,213.671 285.586,214.504 285.5,215.5 Z"/></g>
<g><path style="opacity:1" fill="#e4c370" d="M 335.5,213.5 C 335.5,214.167 335.833,214.5 336.5,214.5C 337.167,214.5 337.833,214.5 338.5,214.5C 335.947,215.255 333.28,215.922 330.5,216.5C 330.5,215.5 330.5,214.5 330.5,213.5C 332.167,213.5 333.833,213.5 335.5,213.5 Z"/></g>
<g><path style="opacity:1" fill="#eec26f" d="M 359.5,213.5 C 360.167,213.5 360.5,213.833 360.5,214.5C 360.5,215.5 360.5,216.5 360.5,217.5C 360.167,217.5 359.833,217.5 359.5,217.5C 356.518,217.037 353.518,216.704 350.5,216.5C 350.5,217.5 350.5,218.5 350.5,219.5C 349.833,219.5 349.167,219.5 348.5,219.5C 348.567,218.041 348.234,216.708 347.5,215.5C 348.167,215.167 348.833,214.833 349.5,214.5C 353.042,214.813 356.375,214.479 359.5,213.5 Z"/></g>
<g><path style="opacity:1" fill="#ecbe6a" d="M 153.5,214.5 C 157.536,215.237 161.536,215.571 165.5,215.5C 166.833,216.167 167.833,217.167 168.5,218.5C 167.833,218.5 167.167,218.5 166.5,218.5C 165.209,218.263 164.209,218.596 163.5,219.5C 163.167,219.5 162.833,219.5 162.5,219.5C 162.315,217.11 160.982,216.11 158.5,216.5C 156.97,216.64 155.97,217.307 155.5,218.5C 154.167,218.5 152.833,218.5 151.5,218.5C 151.5,217.5 151.5,216.5 151.5,215.5C 152.167,215.167 152.833,214.833 153.5,214.5 Z"/></g>
<g><path style="opacity:1" fill="#e3b973" d="M 187.5,214.5 C 188.391,215.11 189.391,215.443 190.5,215.5C 190.5,216.167 190.5,216.833 190.5,217.5C 188.821,217.285 187.821,217.952 187.5,219.5C 185.858,217.919 183.858,217.253 181.5,217.5C 183.629,216.797 185.629,215.797 187.5,214.5 Z"/></g>
<g><path style="opacity:1" fill="#e1bb77" d="M 213.5,215.5 C 214.492,215.328 215.158,215.662 215.5,216.5C 215.5,218.833 215.5,221.167 215.5,223.5C 215.5,224.833 215.5,226.167 215.5,227.5C 212.167,227.5 208.833,227.5 205.5,227.5C 207.5,226.833 209.5,226.167 211.5,225.5C 212.239,225.631 212.906,225.464 213.5,225C 211.292,224.809 209.292,224.309 207.5,223.5C 209.735,223.795 211.735,223.461 213.5,222.5C 213.938,222.565 214.272,222.399 214.5,222C 213.418,220.67 212.751,219.17 212.5,217.5C 213.338,217.158 213.672,216.492 213.5,215.5 Z"/></g>
<g><path style="opacity:1" fill="#efbc6d" d="M 239.5,214.5 C 238.833,215.167 238.167,215.833 237.5,216.5C 236.903,217.139 236.07,217.472 235,217.5C 233.624,217.316 232.791,216.649 232.5,215.5C 234.764,214.781 237.097,214.448 239.5,214.5 Z"/></g>
<g><path style="opacity:0.995" fill="#ebc06c" d="M 248.5,209.5 C 248.5,214.167 248.5,218.833 248.5,223.5C 247.596,222.791 247.263,221.791 247.5,220.5C 246.5,220.5 245.5,220.5 244.5,220.5C 243.833,219.167 242.833,218.167 241.5,217.5C 240.432,216.566 239.099,216.232 237.5,216.5C 238.167,215.833 238.833,215.167 239.5,214.5C 241.035,215.354 242.368,215.354 243.5,214.5C 243.5,214.167 243.5,213.833 243.5,213.5C 243.833,213.5 244.167,213.5 244.5,213.5C 245.473,211.861 246.806,210.527 248.5,209.5 Z"/></g>
<g><path style="opacity:1" fill="#eac06a" d="M 263.5,214.5 C 265.604,214.201 267.604,214.534 269.5,215.5C 267.369,216.169 265.369,216.835 263.5,217.5C 260.988,217.423 258.988,218.423 257.5,220.5C 259.472,222.415 260.472,224.749 260.5,227.5C 260.179,229.048 259.179,229.715 257.5,229.5C 256.676,226.236 256.342,222.902 256.5,219.5C 258.023,216.636 260.357,214.969 263.5,214.5 Z"/></g>
<g><path style="opacity:0.998" fill="#dcb577" d="M 263.5,214.5 C 264.919,213.549 266.585,213.216 268.5,213.5C 269.791,213.263 270.791,213.596 271.5,214.5C 271.5,215.167 271.5,215.833 271.5,216.5C 270.962,218.117 270.629,219.784 270.5,221.5C 269.5,221.5 268.5,221.5 267.5,221.5C 265.901,221.768 264.568,221.434 263.5,220.5C 265.276,220.206 267.276,220.04 269.5,220C 268.022,217.961 266.022,217.128 263.5,217.5C 265.369,216.835 267.369,216.169 269.5,215.5C 267.604,214.534 265.604,214.201 263.5,214.5 Z"/></g>
<g><path style="opacity:1" fill="#ddba83" d="M 322.5,216.5 C 319.267,215.254 315.934,214.754 312.5,215C 314.596,215.737 316.263,216.903 317.5,218.5C 315.099,216.938 313.099,217.271 311.5,219.5C 311.167,219.5 310.833,219.5 310.5,219.5C 310.539,218.417 310.873,217.417 311.5,216.5C 310.833,216.167 310.167,215.833 309.5,215.5C 307.423,216.323 305.756,217.656 304.5,219.5C 304.911,215.921 306.911,213.754 310.5,213C 315.305,211.746 319.305,212.913 322.5,216.5 Z"/></g>
<g><path style="opacity:1" fill="#ecc06c" d="M 370.5,214.5 C 371.833,214.5 373.167,214.5 374.5,214.5C 374.5,216.5 374.5,218.5 374.5,220.5C 373.391,220.557 372.391,220.89 371.5,221.5C 371.167,221.5 370.833,221.5 370.5,221.5C 370.5,219.167 370.5,216.833 370.5,214.5 Z"/></g>
<g><path style="opacity:0.227" fill="#d3b783" d="M 142.5,207.5 C 143.451,208.919 143.784,210.585 143.5,212.5C 140.833,212.5 138.167,212.5 135.5,212.5C 135.5,218.833 135.5,225.167 135.5,231.5C 133.5,231.5 131.5,231.5 129.5,231.5C 129.5,230.5 129.5,229.5 129.5,228.5C 130.167,229.167 130.833,229.833 131.5,230.5C 132.5,230.5 133.5,230.5 134.5,230.5C 134.5,228.833 134.5,227.167 134.5,225.5C 134.5,223.5 134.5,221.5 134.5,219.5C 134.5,217.833 134.5,216.167 134.5,214.5C 134.263,213.209 134.596,212.209 135.5,211.5C 137.833,211.5 140.167,211.5 142.5,211.5C 142.5,210.5 142.5,209.5 142.5,208.5C 142.5,208.167 142.5,207.833 142.5,207.5 Z"/></g>
<g><path style="opacity:1" fill="#e2c07c" d="M 162.5,219.5 C 162.5,221.5 162.5,223.5 162.5,225.5C 161.833,225.5 161.167,225.5 160.5,225.5C 163,220.163 161.333,217.83 155.5,218.5C 155.97,217.307 156.97,216.64 158.5,216.5C 160.982,216.11 162.315,217.11 162.5,219.5 Z"/></g>
<g><path style="opacity:1" fill="#dbbe8c" d="M 268.5,213.5 C 266.585,213.216 264.919,213.549 263.5,214.5C 260.357,214.969 258.023,216.636 256.5,219.5C 256.167,219.5 255.833,219.5 255.5,219.5C 258.138,213.627 262.472,211.627 268.5,213.5 Z"/></g>
<g><path style="opacity:1" fill="#e9c27a" d="M 299.5,217.5 C 298.972,218.721 298.305,219.887 297.5,221C 298.566,222.159 298.233,222.992 296.5,223.5C 296.5,222.5 296.5,221.5 296.5,220.5C 295.5,220.5 294.5,220.5 293.5,220.5C 293.598,222.553 292.931,224.22 291.5,225.5C 290.833,225.5 290.167,225.5 289.5,225.5C 289.5,225.167 289.5,224.833 289.5,224.5C 290.104,221.782 291.437,219.449 293.5,217.5C 295.104,216.713 295.771,215.38 295.5,213.5C 296.833,213.5 298.167,213.5 299.5,213.5C 299.5,214.833 299.5,216.167 299.5,217.5 Z"/></g>
<g><path style="opacity:1" fill="#eec06a" d="M 310.5,219.5 C 308.5,220.167 306.5,220.833 304.5,221.5C 304.5,220.833 304.5,220.167 304.5,219.5C 305.756,217.656 307.423,216.323 309.5,215.5C 310.167,215.833 310.833,216.167 311.5,216.5C 310.873,217.417 310.539,218.417 310.5,219.5 Z"/></g>
<g><path style="opacity:1" fill="#e7bf6e" d="M 322.5,216.5 C 323.338,216.842 323.672,217.508 323.5,218.5C 323.631,219.239 323.464,219.906 323,220.5C 321.571,220.53 320.071,220.197 318.5,219.5C 317.833,219.5 317.5,219.167 317.5,218.5C 316.263,216.903 314.596,215.737 312.5,215C 315.934,214.754 319.267,215.254 322.5,216.5 Z"/></g>
<g><path style="opacity:0.996" fill="#efc26c" d="M 341.5,214.5 C 343.565,214.517 345.565,214.85 347.5,215.5C 348.234,216.708 348.567,218.041 348.5,219.5C 348.5,219.833 348.5,220.167 348.5,220.5C 348.167,220.5 347.833,220.5 347.5,220.5C 347.649,219.448 347.483,218.448 347,217.5C 345.989,218.337 344.822,218.67 343.5,218.5C 342.833,218.167 342.167,217.833 341.5,217.5C 341.5,216.5 341.5,215.5 341.5,214.5 Z"/></g>
<g><path style="opacity:1" fill="#e3bf80" d="M 230.5,215.5 C 231.167,215.5 231.833,215.5 232.5,215.5C 232.791,216.649 233.624,217.316 235,217.5C 236.07,217.472 236.903,217.139 237.5,216.5C 239.099,216.232 240.432,216.566 241.5,217.5C 240.209,217.263 239.209,217.596 238.5,218.5C 237.325,218.281 236.325,218.614 235.5,219.5C 234.652,221.409 234.318,223.409 234.5,225.5C 233.833,223.5 233.167,221.5 232.5,219.5C 231.732,218.737 231.232,217.737 231,216.5C 229.57,219.353 228.737,222.353 228.5,225.5C 227.522,225.189 226.855,224.522 226.5,223.5C 227.661,220.642 228.994,217.975 230.5,215.5 Z"/></g>
<g><path style="opacity:0.937" fill="#f4c96c" d="M 285.5,215.5 C 285.5,217.5 284.5,218.5 282.5,218.5C 282.158,217.662 281.492,217.328 280.5,217.5C 280.5,216.5 280.5,215.5 280.5,214.5C 282.292,214.366 283.958,214.699 285.5,215.5 Z"/></g>
<g><path style="opacity:0.996" fill="#ecbf71" d="M 338.5,214.5 C 339.5,214.5 340.5,214.5 341.5,214.5C 341.5,215.5 341.5,216.5 341.5,217.5C 339.901,217.232 338.568,217.566 337.5,218.5C 337.5,219.167 337.167,219.5 336.5,219.5C 335.833,219.5 335.167,219.5 334.5,219.5C 333.167,219.5 331.833,219.5 330.5,219.5C 330.5,218.5 330.5,217.5 330.5,216.5C 333.28,215.922 335.947,215.255 338.5,214.5 Z"/></g>
<g><path style="opacity:1" fill="#e1bd76" d="M 359.5,217.5 C 358.659,219.379 358.325,221.379 358.5,223.5C 357.833,223.5 357.167,223.5 356.5,223.5C 356.799,218.74 354.799,217.406 350.5,219.5C 350.5,218.5 350.5,217.5 350.5,216.5C 353.518,216.704 356.518,217.037 359.5,217.5 Z"/></g>
<g><path style="opacity:1" fill="#e6c26d" d="M 148.5,213.5 C 149.222,214.551 150.222,215.218 151.5,215.5C 151.5,216.5 151.5,217.5 151.5,218.5C 151.5,218.833 151.5,219.167 151.5,219.5C 150.341,220.74 149.341,222.074 148.5,223.5C 148.5,220.167 148.5,216.833 148.5,213.5 Z"/></g>
<g><path style="opacity:1" fill="#e1be81" d="M 151.5,219.5 C 151.5,219.167 151.5,218.833 151.5,218.5C 152.833,218.5 154.167,218.5 155.5,218.5C 153.874,221.246 153.207,224.246 153.5,227.5C 153.167,227.5 152.833,227.5 152.5,227.5C 152.5,227.167 152.5,226.833 152.5,226.5C 152.802,223.941 152.468,221.607 151.5,219.5 Z"/></g>
<g><path style="opacity:0.991" fill="#dbbe82" d="M 209.5,213.5 C 210.492,213.328 211.158,213.662 211.5,214.5C 210.086,216.867 208.752,219.367 207.5,222C 209.473,222.495 211.473,222.662 213.5,222.5C 211.735,223.461 209.735,223.795 207.5,223.5C 206.566,222.432 206.232,221.099 206.5,219.5C 208.25,217.941 209.25,215.941 209.5,213.5 Z"/></g>
<g><path style="opacity:0.973" fill="#edc176" d="M 285.5,215.5 C 286.486,217.426 287.486,219.426 288.5,221.5C 287.5,221.5 286.5,221.5 285.5,221.5C 285.294,219.451 284.461,219.117 283,220.5C 282.536,219.906 282.369,219.239 282.5,218.5C 284.5,218.5 285.5,217.5 285.5,215.5 Z"/></g>
<g><path style="opacity:1" fill="#e8be6f" d="M 129.5,212.5 C 130.167,212.5 130.5,212.833 130.5,213.5C 129.891,216.878 131.224,218.878 134.5,219.5C 134.5,221.5 134.5,223.5 134.5,225.5C 133.833,225.5 133.167,225.5 132.5,225.5C 132.657,224.127 132.49,222.793 132,221.5C 130.385,222.386 128.885,223.386 127.5,224.5C 127.5,223.833 127.5,223.167 127.5,222.5C 128.222,222.082 128.722,221.416 129,220.5C 129.497,217.854 129.664,215.187 129.5,212.5 Z"/></g>
<g><path style="opacity:1" fill="#eec06f" d="M 190.5,217.5 C 192.213,218.635 192.88,220.302 192.5,222.5C 190.801,222.66 189.134,222.494 187.5,222C 188.774,221.023 188.774,220.189 187.5,219.5C 187.821,217.952 188.821,217.285 190.5,217.5 Z"/></g>
<g><path style="opacity:1" fill="#dcba89" d="M 271.5,214.5 C 274.556,216.871 276.223,220.037 276.5,224C 271.511,224.499 266.511,224.666 261.5,224.5C 262.919,223.549 264.585,223.216 266.5,223.5C 269.167,223.5 271.833,223.5 274.5,223.5C 274.657,222.127 274.49,220.793 274,219.5C 273.465,221.271 272.631,221.604 271.5,220.5C 272.705,219.005 272.705,217.672 271.5,216.5C 271.5,215.833 271.5,215.167 271.5,214.5 Z"/></g>
<g><path style="opacity:1" fill="#f0bd6e" d="M 347.5,220.5 C 348.084,223.285 347.084,224.952 344.5,225.5C 344.552,223.097 344.219,220.764 343.5,218.5C 344.822,218.67 345.989,218.337 347,217.5C 347.483,218.448 347.649,219.448 347.5,220.5 Z"/></g>
<g><path style="opacity:0.758" fill="#d1b382" d="M 153.5,213.5 C 153.167,213.5 152.833,213.5 152.5,213.5C 152.5,211.167 152.5,208.833 152.5,206.5C 151.167,206.5 149.833,206.5 148.5,206.5C 148.5,207.5 148.5,208.5 148.5,209.5C 148.5,210.833 148.5,212.167 148.5,213.5C 148.5,216.833 148.5,220.167 148.5,223.5C 148.5,224.5 148.5,225.5 148.5,226.5C 148.5,227.833 148.5,229.167 148.5,230.5C 149.833,230.5 151.167,230.5 152.5,230.5C 152.5,229.5 152.5,228.5 152.5,227.5C 152.833,227.5 153.167,227.5 153.5,227.5C 153.5,229.167 153.5,230.833 153.5,232.5C 151.143,232.663 148.81,232.497 146.5,232C 147.484,223.251 147.817,214.418 147.5,205.5C 149.5,205.5 151.5,205.5 153.5,205.5C 153.5,208.167 153.5,210.833 153.5,213.5 Z"/></g>
<g><path style="opacity:1" fill="#eac16d" d="M 152.5,213.5 C 151.566,212.432 151.232,211.099 151.5,209.5C 150.5,209.5 149.5,209.5 148.5,209.5C 148.5,208.5 148.5,207.5 148.5,206.5C 149.833,206.5 151.167,206.5 152.5,206.5C 152.5,208.833 152.5,211.167 152.5,213.5 Z"/></g>
<g><path style="opacity:1" fill="#eebf6c" d="M 151.5,219.5 C 152.468,221.607 152.802,223.941 152.5,226.5C 151.167,226.5 149.833,226.5 148.5,226.5C 148.5,225.5 148.5,224.5 148.5,223.5C 149.341,222.074 150.341,220.74 151.5,219.5 Z"/></g>
<g><path style="opacity:0.996" fill="#eec06d" d="M 163.5,219.5 C 164.209,218.596 165.209,218.263 166.5,218.5C 166.5,222.833 166.5,227.167 166.5,231.5C 165.5,231.5 164.5,231.5 163.5,231.5C 163.167,230.833 162.833,230.167 162.5,229.5C 163.828,228.493 164.828,227.16 165.5,225.5C 164.448,223.777 164.448,222.11 165.5,220.5C 165.043,219.702 164.376,219.369 163.5,219.5 Z"/></g>
<g><path style="opacity:1" fill="#e7be71" d="M 181.5,217.5 C 180.833,218.5 180.167,219.5 179.5,220.5C 181.844,220.94 183.844,221.94 185.5,223.5C 183.265,223.205 181.265,223.539 179.5,224.5C 179.5,224.833 179.5,225.167 179.5,225.5C 178.5,225.5 177.5,225.5 176.5,225.5C 176.577,224.25 177.244,223.417 178.5,223C 177.594,221.301 177.261,219.467 177.5,217.5C 178.833,217.5 180.167,217.5 181.5,217.5 Z"/></g>
<g><path style="opacity:1" fill="#ebbf6d" d="M 215.5,216.5 C 216.609,216.557 217.609,216.89 218.5,217.5C 219.338,217.842 219.672,218.508 219.5,219.5C 219.5,221.5 219.5,223.5 219.5,225.5C 218.167,224.833 216.833,224.167 215.5,223.5C 215.5,221.167 215.5,218.833 215.5,216.5 Z"/></g>
<g><path style="opacity:0.982" fill="#e2bf80" d="M 280.5,217.5 C 281.492,217.328 282.158,217.662 282.5,218.5C 282.369,219.239 282.536,219.906 283,220.5C 284.461,219.117 285.294,219.451 285.5,221.5C 284.742,223.981 284.742,226.648 285.5,229.5C 283.321,225.797 281.655,221.797 280.5,217.5 Z"/></g>
<g><path style="opacity:1" fill="#ddc08a" d="M 176.5,215.5 C 175.594,218.436 174.928,221.436 174.5,224.5C 174.5,225.5 174.5,226.5 174.5,227.5C 171.946,223.107 172.613,219.107 176.5,215.5 Z"/></g>
<g><path style="opacity:0.986" fill="#efbf6a" d="M 206.5,219.5 C 206.232,221.099 206.566,222.432 207.5,223.5C 209.292,224.309 211.292,224.809 213.5,225C 212.906,225.464 212.239,225.631 211.5,225.5C 208.753,225.813 206.086,225.48 203.5,224.5C 204.309,222.929 204.643,221.262 204.5,219.5C 204.369,218.761 204.536,218.094 205,217.5C 205.278,218.416 205.778,219.082 206.5,219.5 Z"/></g>
<g><path style="opacity:1" fill="#e6bd70" d="M 310.5,219.5 C 310.5,220.167 310.833,220.5 311.5,220.5C 311.918,221.222 312.584,221.722 313.5,222C 312.944,222.383 312.611,222.883 312.5,223.5C 311.833,223.5 311.5,223.833 311.5,224.5C 310.833,224.5 310.5,224.833 310.5,225.5C 309.662,225.842 309.328,226.508 309.5,227.5C 309.167,227.5 308.833,227.5 308.5,227.5C 308.785,225.712 308.452,224.045 307.5,222.5C 306.081,223.005 305.415,224.005 305.5,225.5C 304.566,224.432 304.232,223.099 304.5,221.5C 306.5,220.833 308.5,220.167 310.5,219.5 Z"/></g>
<g><path style="opacity:1" fill="#e0b779" d="M 323.5,218.5 C 325.481,219.105 325.815,220.105 324.5,221.5C 320.827,223.318 316.827,223.984 312.5,223.5C 312.611,222.883 312.944,222.383 313.5,222C 312.584,221.722 311.918,221.222 311.5,220.5C 311.5,220.167 311.5,219.833 311.5,219.5C 313.979,220.623 316.312,220.623 318.5,219.5C 320.071,220.197 321.571,220.53 323,220.5C 323.464,219.906 323.631,219.239 323.5,218.5 Z"/></g>
<g><path style="opacity:1" fill="#efbd6d" d="M 334.5,221.5 C 334.5,223.5 334.5,225.5 334.5,227.5C 331.104,227.367 330.771,226.367 333.5,224.5C 330.771,222.633 331.104,221.633 334.5,221.5 Z"/></g>
<g><path style="opacity:1" fill="#f2bc69" d="M 359.5,217.5 C 359.833,217.5 360.167,217.5 360.5,217.5C 361.341,219.379 361.675,221.379 361.5,223.5C 360.5,223.5 359.5,223.5 358.5,223.5C 358.325,221.379 358.659,219.379 359.5,217.5 Z"/></g>
<g><path style="opacity:1" fill="#deba7d" d="M 190.5,215.5 C 192.975,216.687 193.975,218.687 193.5,221.5C 191.365,223.369 188.698,224.036 185.5,223.5C 183.844,221.94 181.844,220.94 179.5,220.5C 182.192,220.436 184.859,220.103 187.5,219.5C 188.774,220.189 188.774,221.023 187.5,222C 189.134,222.494 190.801,222.66 192.5,222.5C 192.88,220.302 192.213,218.635 190.5,217.5C 190.5,216.833 190.5,216.167 190.5,215.5 Z"/></g>
<g><path style="opacity:0.827" fill="#dcbe8c" d="M 238.5,218.5 C 239.209,217.596 240.209,217.263 241.5,217.5C 242.833,218.167 243.833,219.167 244.5,220.5C 244.5,221.5 244.5,222.5 244.5,223.5C 244.5,224.167 244.5,224.833 244.5,225.5C 243.833,225.833 243.167,226.167 242.5,226.5C 244.702,221.905 243.369,219.239 238.5,218.5 Z"/></g>
<g><path style="opacity:1" fill="#dabb86" d="M 255.5,219.5 C 255.833,219.5 256.167,219.5 256.5,219.5C 256.342,222.902 256.676,226.236 257.5,229.5C 254.664,226.654 253.997,223.321 255.5,219.5 Z"/></g>
<g><path style="opacity:0.984" fill="#e8bd74" d="M 263.5,217.5 C 263.047,218.458 262.381,219.292 261.5,220C 262.094,220.464 262.761,220.631 263.5,220.5C 264.568,221.434 265.901,221.768 267.5,221.5C 267.167,222.167 266.833,222.833 266.5,223.5C 264.585,223.216 262.919,223.549 261.5,224.5C 261.5,225.167 261.5,225.833 261.5,226.5C 261.5,226.833 261.5,227.167 261.5,227.5C 261.167,227.5 260.833,227.5 260.5,227.5C 260.472,224.749 259.472,222.415 257.5,220.5C 258.988,218.423 260.988,217.423 263.5,217.5 Z"/></g>
<g><path style="opacity:0.996" fill="#e8c073" d="M 271.5,216.5 C 272.705,217.672 272.705,219.005 271.5,220.5C 272.631,221.604 273.465,221.271 274,219.5C 274.49,220.793 274.657,222.127 274.5,223.5C 271.833,223.5 269.167,223.5 266.5,223.5C 266.833,222.833 267.167,222.167 267.5,221.5C 268.5,221.5 269.5,221.5 270.5,221.5C 270.629,219.784 270.962,218.117 271.5,216.5 Z"/></g>
<g><path style="opacity:0.969" fill="#efbf6a" d="M 308.5,227.5 C 307.833,227.5 307.5,227.833 307.5,228.5C 306.599,227.71 305.932,226.71 305.5,225.5C 305.415,224.005 306.081,223.005 307.5,222.5C 308.452,224.045 308.785,225.712 308.5,227.5 Z"/></g>
<g><path style="opacity:1" fill="#e8c169" d="M 370.5,221.5 C 370.833,221.5 371.167,221.5 371.5,221.5C 371.592,223.848 372.592,225.514 374.5,226.5C 374.5,227.833 374.5,229.167 374.5,230.5C 373.167,230.5 371.833,230.5 370.5,230.5C 370.5,227.5 370.5,224.5 370.5,221.5 Z"/></g>
<g><path style="opacity:1" fill="#f0bc72" d="M 374.5,220.5 C 374.5,222.5 374.5,224.5 374.5,226.5C 372.592,225.514 371.592,223.848 371.5,221.5C 372.391,220.89 373.391,220.557 374.5,220.5 Z"/></g>
<g><path style="opacity:0.165" fill="#d9c39c" d="M 369.5,230.5 C 369.833,230.5 370.167,230.5 370.5,230.5C 371.919,231.451 373.585,231.784 375.5,231.5C 375.823,225.31 375.49,219.31 374.5,213.5C 374.5,213.167 374.5,212.833 374.5,212.5C 374.81,211.262 375.31,211.262 376,212.5C 376.5,219.158 376.666,225.825 376.5,232.5C 373.612,233.01 371.279,232.344 369.5,230.5 Z"/></g>
<g><path style="opacity:1" fill="#ecba6d" d="M 132.5,225.5 C 131.699,227.042 131.366,228.708 131.5,230.5C 130.833,229.833 130.167,229.167 129.5,228.5C 129.715,226.821 129.048,225.821 127.5,225.5C 127.5,225.167 127.5,224.833 127.5,224.5C 128.885,223.386 130.385,222.386 132,221.5C 132.49,222.793 132.657,224.127 132.5,225.5 Z"/></g>
<g><path style="opacity:1" fill="#edbc70" d="M 162.5,219.5 C 162.833,219.5 163.167,219.5 163.5,219.5C 164.376,219.369 165.043,219.702 165.5,220.5C 164.448,222.11 164.448,223.777 165.5,225.5C 164.828,227.16 163.828,228.493 162.5,229.5C 162.5,228.167 162.5,226.833 162.5,225.5C 162.5,223.5 162.5,221.5 162.5,219.5 Z"/></g>
<g><path style="opacity:1" fill="#e5ca9c" d="M 166.5,218.5 C 167.167,218.5 167.833,218.5 168.5,218.5C 167.99,222.932 167.99,227.432 168.5,232C 166.19,232.497 163.857,232.663 161.5,232.5C 161.842,231.662 162.508,231.328 163.5,231.5C 164.5,231.5 165.5,231.5 166.5,231.5C 166.5,227.167 166.5,222.833 166.5,218.5 Z"/></g>
<g><path style="opacity:0.98" fill="#d3ba96" d="M 193.5,221.5 C 194.404,222.209 194.737,223.209 194.5,224.5C 189.5,224.5 184.5,224.5 179.5,224.5C 181.265,223.539 183.265,223.205 185.5,223.5C 188.698,224.036 191.365,223.369 193.5,221.5 Z"/></g>
<g><path style="opacity:0.988" fill="#d0b396" d="M 324.5,221.5 C 325.028,222.847 325.195,224.181 325,225.5C 320.599,224.533 316.099,224.2 311.5,224.5C 311.5,223.833 311.833,223.5 312.5,223.5C 316.827,223.984 320.827,223.318 324.5,221.5 Z"/></g>
<g><path style="opacity:1" fill="#e6bf70" d="M 360.5,214.5 C 362.074,216.102 362.741,218.102 362.5,220.5C 362.5,222.833 362.5,225.167 362.5,227.5C 360.833,227.5 359.167,227.5 357.5,227.5C 356.566,226.432 356.232,225.099 356.5,223.5C 357.167,223.5 357.833,223.5 358.5,223.5C 359.5,223.5 360.5,223.5 361.5,223.5C 361.675,221.379 361.341,219.379 360.5,217.5C 360.5,216.5 360.5,215.5 360.5,214.5 Z"/></g>
<g><path style="opacity:0.137" fill="#e0c592" d="M 362.5,220.5 C 363.483,224.298 363.817,228.298 363.5,232.5C 356.073,233.288 353.74,230.288 356.5,223.5C 356.232,225.099 356.566,226.432 357.5,227.5C 358.048,230.084 359.715,231.084 362.5,230.5C 362.5,229.5 362.5,228.5 362.5,227.5C 362.5,225.167 362.5,222.833 362.5,220.5 Z"/></g>
<g><path style="opacity:0.984" fill="#edc36c" d="M 202.5,219.5 C 203.167,219.5 203.833,219.5 204.5,219.5C 204.643,221.262 204.309,222.929 203.5,224.5C 206.086,225.48 208.753,225.813 211.5,225.5C 209.5,226.167 207.5,226.833 205.5,227.5C 205.5,228.167 205.167,228.5 204.5,228.5C 203.833,228.5 203.5,228.833 203.5,229.5C 202.142,230.626 200.808,230.626 199.5,229.5C 201.668,226.502 202.668,223.169 202.5,219.5 Z"/></g>
<g><path style="opacity:1" fill="#e4c385" d="M 219.5,219.5 C 220.406,221.597 221.739,223.93 223.5,226.5C 223.167,226.5 222.833,226.5 222.5,226.5C 221.391,226.443 220.391,226.11 219.5,225.5C 219.5,223.5 219.5,221.5 219.5,219.5 Z"/></g>
<g><path style="opacity:0.996" fill="#eabf74" d="M 285.5,221.5 C 286.5,221.5 287.5,221.5 288.5,221.5C 289.11,222.391 289.443,223.391 289.5,224.5C 289.5,224.833 289.5,225.167 289.5,225.5C 288.5,225.5 287.5,225.5 286.5,225.5C 286.5,226.833 286.5,228.167 286.5,229.5C 287.806,230.467 288.473,231.801 288.5,233.5C 287.833,233.5 287.167,233.5 286.5,233.5C 286.167,232.167 285.833,230.833 285.5,229.5C 284.742,226.648 284.742,223.981 285.5,221.5 Z"/></g>
<g><path style="opacity:1" fill="#e7c169" d="M 174.5,224.5 C 175.167,224.833 175.833,225.167 176.5,225.5C 177.5,225.5 178.5,225.5 179.5,225.5C 179.5,226.167 179.5,226.833 179.5,227.5C 179.5,228.5 179.5,229.5 179.5,230.5C 177.952,230.179 177.285,229.179 177.5,227.5C 176.5,227.5 175.5,227.5 174.5,227.5C 174.5,226.5 174.5,225.5 174.5,224.5 Z"/></g>
<g><path style="opacity:0.963" fill="#e9c26e" d="M 232.5,219.5 C 233.069,223.329 232.402,226.663 230.5,229.5C 228.896,228.713 228.229,227.38 228.5,225.5C 228.737,222.353 229.57,219.353 231,216.5C 231.232,217.737 231.732,218.737 232.5,219.5 Z"/></g>
<g><path style="opacity:1" fill="#ebbf77" d="M 296.5,223.5 C 296.405,225.786 295.738,227.786 294.5,229.5C 293.5,228.167 292.5,226.833 291.5,225.5C 292.931,224.22 293.598,222.553 293.5,220.5C 294.5,220.5 295.5,220.5 296.5,220.5C 296.5,221.5 296.5,222.5 296.5,223.5 Z"/></g>
<g><path style="opacity:1" fill="#e9c164" d="M 347.5,220.5 C 347.833,220.5 348.167,220.5 348.5,220.5C 348.5,222.833 348.5,225.167 348.5,227.5C 347.167,227.5 345.833,227.5 344.5,227.5C 344.5,226.833 344.5,226.167 344.5,225.5C 347.084,224.952 348.084,223.285 347.5,220.5 Z"/></g>
<g><path style="opacity:1" fill="#e8c17d" d="M 370.5,214.5 C 371.568,213.566 372.901,213.232 374.5,213.5C 375.49,219.31 375.823,225.31 375.5,231.5C 373.585,231.784 371.919,231.451 370.5,230.5C 371.833,230.5 373.167,230.5 374.5,230.5C 374.5,229.167 374.5,227.833 374.5,226.5C 374.5,224.5 374.5,222.5 374.5,220.5C 374.5,218.5 374.5,216.5 374.5,214.5C 373.167,214.5 371.833,214.5 370.5,214.5 Z"/></g>
<g><path style="opacity:0.992" fill="#ebc066" d="M 132.5,225.5 C 133.167,225.5 133.833,225.5 134.5,225.5C 134.5,227.167 134.5,228.833 134.5,230.5C 133.5,230.5 132.5,230.5 131.5,230.5C 131.366,228.708 131.699,227.042 132.5,225.5 Z"/></g>
<g><path style="opacity:1" fill="#efbc70" d="M 148.5,226.5 C 149.833,226.5 151.167,226.5 152.5,226.5C 152.5,226.833 152.5,227.167 152.5,227.5C 152.5,228.5 152.5,229.5 152.5,230.5C 151.167,230.5 149.833,230.5 148.5,230.5C 148.5,229.167 148.5,227.833 148.5,226.5 Z"/></g>
<g><path style="opacity:1" fill="#edbd68" d="M 215.5,223.5 C 216.833,224.167 218.167,224.833 219.5,225.5C 220.391,226.11 221.391,226.443 222.5,226.5C 222.719,227.675 222.386,228.675 221.5,229.5C 220.378,228.37 219.044,227.703 217.5,227.5C 217.167,227.5 216.833,227.5 216.5,227.5C 216.167,227.5 215.833,227.5 215.5,227.5C 215.5,226.167 215.5,224.833 215.5,223.5 Z"/></g>
<g><path style="opacity:0.973" fill="#e8c281" d="M 232.5,219.5 C 233.167,221.5 233.833,223.5 234.5,225.5C 235.458,225.953 236.292,226.619 237,227.5C 238.414,226.587 239.914,226.587 241.5,227.5C 241.5,227.833 241.5,228.167 241.5,228.5C 239.208,228.756 237.041,228.423 235,227.5C 232.99,229.396 233.157,231.063 235.5,232.5C 233.067,232.727 231.401,231.727 230.5,229.5C 232.402,226.663 233.069,223.329 232.5,219.5 Z"/></g>
<g><path style="opacity:1" fill="#ebbe66" d="M 289.5,225.5 C 290.167,225.5 290.833,225.5 291.5,225.5C 292.5,226.833 293.5,228.167 294.5,229.5C 293.833,229.5 293.167,229.5 292.5,229.5C 290.5,229.5 288.5,229.5 286.5,229.5C 286.5,228.167 286.5,226.833 286.5,225.5C 287.5,225.5 288.5,225.5 289.5,225.5 Z"/></g>
<g><path style="opacity:0.827" fill="#d8bc8c" d="M 304.5,219.5 C 304.5,220.167 304.5,220.833 304.5,221.5C 304.232,223.099 304.566,224.432 305.5,225.5C 305.932,226.71 306.599,227.71 307.5,228.5C 308.167,229.5 308.833,230.5 309.5,231.5C 306.404,230.24 304.071,228.074 302.5,225C 303.109,223.052 303.776,221.218 304.5,219.5 Z"/></g>
<g><path style="opacity:1" fill="#dabb86" d="M 179.5,225.5 C 180.819,226.897 182.486,227.563 184.5,227.5C 187.907,225.529 190.574,226.195 192.5,229.5C 192.145,230.522 191.478,231.189 190.5,231.5C 190.5,231.167 190.5,230.833 190.5,230.5C 187.23,228.775 183.564,227.775 179.5,227.5C 179.5,226.833 179.5,226.167 179.5,225.5 Z"/></g>
<g><path style="opacity:1" fill="#f1bd6b" d="M 244.5,223.5 C 245.496,223.414 246.329,223.748 247,224.5C 247.765,226.066 247.598,227.399 246.5,228.5C 244.952,228.179 244.285,227.179 244.5,225.5C 244.5,224.833 244.5,224.167 244.5,223.5 Z"/></g>
<g><path style="opacity:1" fill="#dfbd8e" d="M 261.5,226.5 C 264.673,226.66 267.84,226.66 271,226.5C 272.301,226.639 273.134,227.305 273.5,228.5C 270.5,228.5 267.5,228.5 264.5,228.5C 263.209,228.737 262.209,228.404 261.5,227.5C 261.5,227.167 261.5,226.833 261.5,226.5 Z"/></g>
<g><path style="opacity:1" fill="#ddbe92" d="M 310.5,225.5 C 310.811,226.478 311.478,227.145 312.5,227.5C 315.5,227.333 318.5,227.167 321.5,227C 323.311,228.041 323.645,229.207 322.5,230.5C 322.389,229.883 322.056,229.383 321.5,229C 317.415,228.767 313.415,228.267 309.5,227.5C 309.328,226.508 309.662,225.842 310.5,225.5 Z"/></g>
<g><path style="opacity:0.455" fill="#d9be92" d="M 335.5,213.5 C 333.833,213.5 332.167,213.5 330.5,213.5C 330.5,214.5 330.5,215.5 330.5,216.5C 330.5,217.5 330.5,218.5 330.5,219.5C 330.5,223.5 330.5,227.5 330.5,231.5C 331.5,231.5 332.5,231.5 333.5,231.5C 335.179,231.715 336.179,231.048 336.5,229.5C 337.404,230.209 337.737,231.209 337.5,232.5C 334.833,232.5 332.167,232.5 329.5,232.5C 329.5,225.833 329.5,219.167 329.5,212.5C 331.735,212.205 333.735,212.539 335.5,213.5 Z"/></g>
<g><path style="opacity:1" fill="#eac069" d="M 330.5,219.5 C 331.833,219.5 333.167,219.5 334.5,219.5C 334.5,220.167 334.5,220.833 334.5,221.5C 331.104,221.633 330.771,222.633 333.5,224.5C 330.771,226.367 331.104,227.367 334.5,227.5C 334.567,228.959 334.234,230.292 333.5,231.5C 332.5,231.5 331.5,231.5 330.5,231.5C 330.5,227.5 330.5,223.5 330.5,219.5 Z"/></g>
<g><path style="opacity:1" fill="#e5bb73" d="M 348.5,219.5 C 349.167,219.5 349.833,219.5 350.5,219.5C 349.89,220.391 349.557,221.391 349.5,222.5C 349.492,225.545 349.159,228.545 348.5,231.5C 347.167,231.5 345.833,231.5 344.5,231.5C 344.5,230.167 344.5,228.833 344.5,227.5C 345.833,227.5 347.167,227.5 348.5,227.5C 348.5,225.167 348.5,222.833 348.5,220.5C 348.5,220.167 348.5,219.833 348.5,219.5 Z"/></g>
<g><path style="opacity:0.463" fill="#cfb480" d="M 374.5,212.5 C 374.5,212.833 374.5,213.167 374.5,213.5C 372.901,213.232 371.568,213.566 370.5,214.5C 370.5,216.833 370.5,219.167 370.5,221.5C 370.5,224.5 370.5,227.5 370.5,230.5C 370.167,230.5 369.833,230.5 369.5,230.5C 369.5,224.5 369.5,218.5 369.5,212.5C 371.167,212.5 372.833,212.5 374.5,212.5 Z"/></g>
<g><path style="opacity:1" fill="#e2be85" d="M 174.5,227.5 C 175.5,227.5 176.5,227.5 177.5,227.5C 177.285,229.179 177.952,230.179 179.5,230.5C 181.094,230.92 182.594,231.586 184,232.5C 185.921,230.997 188.088,230.331 190.5,230.5C 190.5,230.833 190.5,231.167 190.5,231.5C 185.783,234.197 181.117,234.031 176.5,231C 175.177,230.184 174.511,229.017 174.5,227.5 Z"/></g>
<g><path style="opacity:1" fill="#eebd6b" d="M 179.5,227.5 C 183.564,227.775 187.23,228.775 190.5,230.5C 188.088,230.331 185.921,230.997 184,232.5C 182.594,231.586 181.094,230.92 179.5,230.5C 179.5,229.5 179.5,228.5 179.5,227.5 Z"/></g>
<g><path style="opacity:1" fill="#e7c06d" d="M 244.5,225.5 C 244.285,227.179 244.952,228.179 246.5,228.5C 245.34,230.203 246.007,230.869 248.5,230.5C 247.432,231.434 246.099,231.768 244.5,231.5C 243.791,230.596 242.791,230.263 241.5,230.5C 241.5,229.833 241.5,229.167 241.5,228.5C 241.5,228.167 241.5,227.833 241.5,227.5C 241.5,226.833 241.833,226.5 242.5,226.5C 243.167,226.167 243.833,225.833 244.5,225.5 Z"/></g>
<g><path style="opacity:0.988" fill="#ecc26a" d="M 244.5,220.5 C 245.5,220.5 246.5,220.5 247.5,220.5C 247.263,221.791 247.596,222.791 248.5,223.5C 248.5,225.833 248.5,228.167 248.5,230.5C 246.007,230.869 245.34,230.203 246.5,228.5C 247.598,227.399 247.765,226.066 247,224.5C 246.329,223.748 245.496,223.414 244.5,223.5C 244.5,222.5 244.5,221.5 244.5,220.5 Z"/></g>
<g><path style="opacity:1" fill="#e6bd80" d="M 260.5,227.5 C 260.833,227.5 261.167,227.5 261.5,227.5C 262.209,228.404 263.209,228.737 264.5,228.5C 263.737,229.268 262.737,229.768 261.5,230C 263.129,230.585 264.629,231.419 266,232.5C 267.766,231.767 269.599,231.433 271.5,231.5C 266.397,234.349 261.73,233.682 257.5,229.5C 259.179,229.715 260.179,229.048 260.5,227.5 Z"/></g>
<g><path style="opacity:1" fill="#e9bd74" d="M 308.5,227.5 C 308.833,227.5 309.167,227.5 309.5,227.5C 313.415,228.267 317.415,228.767 321.5,229C 322.056,229.383 322.389,229.883 322.5,230.5C 318.342,233.871 314.008,234.204 309.5,231.5C 308.833,230.5 308.167,229.5 307.5,228.5C 307.5,227.833 307.833,227.5 308.5,227.5 Z"/></g>
<g><path style="opacity:1" fill="#dec086" d="M 334.5,219.5 C 335.167,219.5 335.833,219.5 336.5,219.5C 336.5,222.833 336.5,226.167 336.5,229.5C 336.179,231.048 335.179,231.715 333.5,231.5C 334.234,230.292 334.567,228.959 334.5,227.5C 334.5,225.5 334.5,223.5 334.5,221.5C 334.5,220.833 334.5,220.167 334.5,219.5 Z"/></g>
<g><path style="opacity:1" fill="#dab886" d="M 337.5,218.5 C 338.568,217.566 339.901,217.232 341.5,217.5C 342.167,217.833 342.833,218.167 343.5,218.5C 344.219,220.764 344.552,223.097 344.5,225.5C 344.5,226.167 344.5,226.833 344.5,227.5C 344.5,228.833 344.5,230.167 344.5,231.5C 344.167,231.5 343.833,231.5 343.5,231.5C 343.979,227.089 343.312,222.922 341.5,219C 340.207,218.51 338.873,218.343 337.5,218.5 Z"/></g>
<g><path style="opacity:1" fill="#efbe64" d="M 357.5,227.5 C 359.167,227.5 360.833,227.5 362.5,227.5C 362.5,228.5 362.5,229.5 362.5,230.5C 359.715,231.084 358.048,230.084 357.5,227.5 Z"/></g>
<g><path style="opacity:0.631" fill="#e6ad83" d="M 160.5,225.5 C 161.167,225.5 161.833,225.5 162.5,225.5C 162.5,226.833 162.5,228.167 162.5,229.5C 162.833,230.167 163.167,230.833 163.5,231.5C 162.508,231.328 161.842,231.662 161.5,232.5C 160.532,230.393 160.198,228.059 160.5,225.5 Z"/></g>
<g><path style="opacity:1" fill="#e0bf84" d="M 202.5,219.5 C 202.668,223.169 201.668,226.502 199.5,229.5C 200.808,230.626 202.142,230.626 203.5,229.5C 202.448,231.256 200.781,231.923 198.5,231.5C 198.5,230.5 198.5,229.5 198.5,228.5C 199.597,225.314 200.93,222.314 202.5,219.5 Z"/></g>
<g><path style="opacity:1" fill="#e7be73" d="M 222.5,226.5 C 222.833,226.5 223.167,226.5 223.5,226.5C 223.5,227.167 223.5,227.833 223.5,228.5C 223.5,229.5 223.5,230.5 223.5,231.5C 221.833,231.5 220.167,231.5 218.5,231.5C 218.567,230.041 218.234,228.708 217.5,227.5C 219.044,227.703 220.378,228.37 221.5,229.5C 222.386,228.675 222.719,227.675 222.5,226.5 Z"/></g>
<g><path style="opacity:0.008" fill="#aaa899" d="M 226.5,231.5 C 225.27,228.565 225.937,228.065 228.5,230C 227.956,230.717 227.289,231.217 226.5,231.5 Z"/></g>
<g><path style="opacity:1" fill="#ebbe6b" d="M 241.5,228.5 C 241.5,229.167 241.5,229.833 241.5,230.5C 239.718,231.72 237.718,232.386 235.5,232.5C 233.157,231.063 232.99,229.396 235,227.5C 237.041,228.423 239.208,228.756 241.5,228.5 Z"/></g>
<g><path style="opacity:0.992" fill="#e4c189" d="M 241.5,230.5 C 242.791,230.263 243.791,230.596 244.5,231.5C 244.167,231.5 243.833,231.5 243.5,231.5C 241.388,232.594 239.221,233.594 237,234.5C 236.283,233.956 235.783,233.289 235.5,232.5C 237.718,232.386 239.718,231.72 241.5,230.5 Z"/></g>
<g><path style="opacity:1" fill="#e9bf73" d="M 264.5,228.5 C 267.5,228.5 270.5,228.5 273.5,228.5C 274.289,228.783 274.956,229.283 275.5,230C 274.255,230.791 272.922,231.291 271.5,231.5C 269.599,231.433 267.766,231.767 266,232.5C 264.629,231.419 263.129,230.585 261.5,230C 262.737,229.768 263.737,229.268 264.5,228.5 Z"/></g>
<g><path style="opacity:1" fill="#cdb695" d="M 127.5,225.5 C 129.048,225.821 129.715,226.821 129.5,228.5C 129.5,229.5 129.5,230.5 129.5,231.5C 131.5,231.5 133.5,231.5 135.5,231.5C 133.393,232.468 131.059,232.802 128.5,232.5C 128.702,230.05 128.369,227.717 127.5,225.5 Z"/></g>
<g><path style="opacity:1" fill="#d6bc9d" d="M 198.5,228.5 C 198.5,229.5 198.5,230.5 198.5,231.5C 200.781,231.923 202.448,231.256 203.5,229.5C 203.5,228.833 203.833,228.5 204.5,228.5C 204.5,229.833 204.5,231.167 204.5,232.5C 201.482,232.665 198.482,232.498 195.5,232C 196.814,231.015 197.814,229.848 198.5,228.5 Z"/></g>
<g><path style="opacity:1" fill="#d4b692" d="M 216.5,227.5 C 216.833,227.5 217.167,227.5 217.5,227.5C 218.234,228.708 218.567,230.041 218.5,231.5C 220.167,231.5 221.833,231.5 223.5,231.5C 223.5,230.5 223.5,229.5 223.5,228.5C 224.1,229.9 225.1,230.9 226.5,231.5C 223.713,232.477 220.713,232.81 217.5,232.5C 217.371,230.784 217.038,229.117 216.5,227.5 Z"/></g>
<g><path style="opacity:0.996" fill="#deb194" d="M 349.5,222.5 C 350.305,225.478 350.638,228.478 350.5,231.5C 348.027,232.797 345.693,232.797 343.5,231.5C 343.833,231.5 344.167,231.5 344.5,231.5C 345.833,231.5 347.167,231.5 348.5,231.5C 349.159,228.545 349.492,225.545 349.5,222.5 Z"/></g>
<g><path style="opacity:1" fill="#eebd6c" d="M 286.5,229.5 C 288.5,229.5 290.5,229.5 292.5,229.5C 291.91,230.766 291.41,232.099 291,233.5C 290.023,234.774 289.189,234.774 288.5,233.5C 288.473,231.801 287.806,230.467 286.5,229.5 Z"/></g>
<g><path style="opacity:1" fill="#e4c271" d="M 292.5,229.5 C 293.167,229.5 293.833,229.5 294.5,229.5C 293.528,232.132 292.195,234.465 290.5,236.5C 289.391,236.443 288.391,236.11 287.5,235.5C 286.833,235.5 286.167,235.5 285.5,235.5C 285.5,235.167 285.5,234.833 285.5,234.5C 285.5,233.833 285.833,233.5 286.5,233.5C 287.167,233.5 287.833,233.5 288.5,233.5C 289.189,234.774 290.023,234.774 291,233.5C 291.41,232.099 291.91,230.766 292.5,229.5 Z"/></g>
<g><path style="opacity:1" fill="#ebc173" d="M 285.5,235.5 C 286.167,235.5 286.833,235.5 287.5,235.5C 286.086,237.054 284.419,238.388 282.5,239.5C 282.167,239.5 281.833,239.5 281.5,239.5C 280.766,238.292 280.433,236.959 280.5,235.5C 282.167,235.5 283.833,235.5 285.5,235.5 Z"/></g>
<g><path style="opacity:1" fill="#dbc096" d="M 285.5,234.5 C 285.5,234.833 285.5,235.167 285.5,235.5C 283.833,235.5 282.167,235.5 280.5,235.5C 280.433,236.959 280.766,238.292 281.5,239.5C 280.078,239.291 278.745,238.791 277.5,238C 278.701,237.097 279.535,235.931 280,234.5C 281.626,234.146 283.459,234.146 285.5,234.5 Z"/></g>
<g><path style="opacity:1" fill="#e1bf82" d="M 287.5,235.5 C 288.391,236.11 289.391,236.443 290.5,236.5C 290.423,237.75 289.756,238.583 288.5,239C 287,239.5 285.5,240 284,240.5C 283.235,240.43 282.735,240.097 282.5,239.5C 284.419,238.388 286.086,237.054 287.5,235.5 Z"/></g>
<g><path style="opacity:0.596" fill="#d7bb97" d="M 327.5,261.5 C 327.167,261.5 326.833,261.5 326.5,261.5C 326.5,257.833 326.5,254.167 326.5,250.5C 325.081,249.549 323.415,249.216 321.5,249.5C 321.5,251.833 321.5,254.167 321.5,256.5C 321.167,256.5 320.833,256.5 320.5,256.5C 320.5,253.833 320.5,251.167 320.5,248.5C 322.833,248.5 325.167,248.5 327.5,248.5C 327.5,252.833 327.5,257.167 327.5,261.5 Z"/></g>
<g><path style="opacity:1" fill="#e5c887" d="M 270.5,248.5 C 269.127,248.343 267.793,248.51 266.5,249C 265.226,249.977 265.226,250.811 266.5,251.5C 266.158,252.338 265.492,252.672 264.5,252.5C 262.799,249.298 263.799,247.298 267.5,246.5C 268.739,246.942 269.739,247.609 270.5,248.5 Z"/></g>
<g><path style="opacity:0.933" fill="#fbc970" d="M 270.5,248.5 C 270.5,249.5 270.5,250.5 270.5,251.5C 269.167,251.5 267.833,251.5 266.5,251.5C 265.226,250.811 265.226,249.977 266.5,249C 267.793,248.51 269.127,248.343 270.5,248.5 Z"/></g>
<g><path style="opacity:0.996" fill="#e0c184" d="M 141.5,252.5 C 139.473,252.338 137.473,252.505 135.5,253C 134.922,254.417 133.922,255.25 132.5,255.5C 133.934,248.648 136.934,247.648 141.5,252.5 Z"/></g>
<g><path style="opacity:0.949" fill="#e5c286" d="M 270.5,248.5 C 271.801,249.884 271.801,251.384 270.5,253C 268.288,253.789 266.288,253.622 264.5,252.5C 265.492,252.672 266.158,252.338 266.5,251.5C 267.833,251.5 269.167,251.5 270.5,251.5C 270.5,250.5 270.5,249.5 270.5,248.5 Z"/></g>
<g><path style="opacity:1" fill="#e4be7e" d="M 326.5,250.5 C 325.167,250.5 323.833,250.5 322.5,250.5C 322.5,251.5 322.5,252.5 322.5,253.5C 322.5,255.5 322.5,257.5 322.5,259.5C 322.167,259.5 321.833,259.5 321.5,259.5C 321.5,258.5 321.5,257.5 321.5,256.5C 321.5,254.167 321.5,251.833 321.5,249.5C 323.415,249.216 325.081,249.549 326.5,250.5 Z"/></g>
<g><path style="opacity:1" fill="#e8c167" d="M 326.5,250.5 C 326.5,254.167 326.5,257.833 326.5,261.5C 325.5,261.5 324.5,261.5 323.5,261.5C 322.833,261.5 322.167,261.5 321.5,261.5C 321.5,260.833 321.5,260.167 321.5,259.5C 321.833,259.5 322.167,259.5 322.5,259.5C 324.318,261.078 325.318,260.578 325.5,258C 325.041,256.058 324.041,254.558 322.5,253.5C 322.5,252.5 322.5,251.5 322.5,250.5C 323.833,250.5 325.167,250.5 326.5,250.5 Z"/></g>
<g><path style="opacity:1" fill="#e2bb8a" d="M 141.5,252.5 C 143.592,255.088 144.925,258.088 145.5,261.5C 144.833,261.167 144.167,260.833 143.5,260.5C 142.25,257.994 141.584,255.327 141.5,252.5 Z"/></g>
<g><path style="opacity:0.785" fill="#d0b694" d="M 178.5,274.5 C 179.833,274.5 181.167,274.5 182.5,274.5C 183.493,266.35 183.826,258.017 183.5,249.5C 181.901,249.232 180.568,249.566 179.5,250.5C 179.802,253.059 179.468,255.393 178.5,257.5C 178.5,254.5 178.5,251.5 178.5,248.5C 180.5,248.5 182.5,248.5 184.5,248.5C 184.5,257.5 184.5,266.5 184.5,275.5C 182.265,275.795 180.265,275.461 178.5,274.5 Z"/></g>
<g><path style="opacity:1" fill="#ebbe6e" d="M 141.5,252.5 C 141.584,255.327 142.25,257.994 143.5,260.5C 141.797,259.34 141.131,260.007 141.5,262.5C 141.028,260.469 140.028,258.802 138.5,257.5C 137.833,258.5 137.167,259.5 136.5,260.5C 133.09,260.616 131.756,258.95 132.5,255.5C 133.922,255.25 134.922,254.417 135.5,253C 137.473,252.505 139.473,252.338 141.5,252.5 Z"/></g>
<g><path style="opacity:1" fill="#ebbf6f" d="M 169.5,256.5 C 171.5,256.5 173.5,256.5 175.5,256.5C 175.33,257.822 175.663,258.989 176.5,260C 174.618,260.198 172.952,260.698 171.5,261.5C 171.167,261.5 170.833,261.5 170.5,261.5C 169.833,261.5 169.167,261.5 168.5,261.5C 167.5,261.5 166.5,261.5 165.5,261.5C 166.3,259.427 167.633,257.76 169.5,256.5 Z"/></g>
<g><path style="opacity:1" fill="#ebbe6f" d="M 180.5,250.5 C 182.456,256.412 183.123,262.745 182.5,269.5C 181.041,269.433 179.708,269.766 178.5,270.5C 178.5,269.5 178.5,268.5 178.5,267.5C 178.5,266.5 178.5,265.5 178.5,264.5C 179.931,264.881 180.764,265.881 181,267.5C 181.667,264.833 181.667,262.167 181,259.5C 180.617,260.056 180.117,260.389 179.5,260.5C 179.389,259.883 179.056,259.383 178.5,259C 180.321,256.544 180.988,253.711 180.5,250.5 Z"/></g>
<g><path style="opacity:1" fill="#d8be93" d="M 339.5,258.5 C 338.393,256.153 336.726,255.82 334.5,257.5C 334.167,257.5 333.833,257.5 333.5,257.5C 333.611,256.883 333.944,256.383 334.5,256C 337.227,255.182 339.894,255.348 342.5,256.5C 341.643,257.425 340.643,258.092 339.5,258.5 Z"/></g>
<g><path style="opacity:1" fill="#e5c390" d="M 169.5,256.5 C 167.633,257.76 166.3,259.427 165.5,261.5C 164.655,262.671 163.989,264.005 163.5,265.5C 163.5,266.167 163.167,266.5 162.5,266.5C 162.062,266.565 161.728,266.399 161.5,266C 162.856,263.602 164.023,261.102 165,258.5C 166.33,257.418 167.83,256.751 169.5,256.5 Z"/></g>
<g><path style="opacity:0.906" fill="#ebbd78" d="M 179.5,250.5 C 179.833,250.5 180.167,250.5 180.5,250.5C 180.988,253.711 180.321,256.544 178.5,259C 179.056,259.383 179.389,259.883 179.5,260.5C 179.5,261.167 179.167,261.5 178.5,261.5C 177.566,260.432 177.232,259.099 177.5,257.5C 177.833,257.5 178.167,257.5 178.5,257.5C 179.468,255.393 179.802,253.059 179.5,250.5 Z"/></g>
<g><path style="opacity:1" fill="#deba86" d="M 205.5,256.5 C 212.158,254.331 216.491,256.664 218.5,263.5C 216.912,262.359 215.579,260.859 214.5,259C 213.552,258.517 212.552,258.351 211.5,258.5C 211.5,257.167 210.833,256.5 209.5,256.5C 208.167,256.5 206.833,256.5 205.5,256.5 Z"/></g>
<g><path style="opacity:1" fill="#ecbe6b" d="M 291.5,257.5 C 291.5,257.833 291.5,258.167 291.5,258.5C 291.5,259.5 291.5,260.5 291.5,261.5C 290.691,263.292 290.191,265.292 290,267.5C 289.29,266.027 288.124,265.36 286.5,265.5C 286.5,262.5 286.5,259.5 286.5,256.5C 288.292,256.366 289.958,256.699 291.5,257.5 Z"/></g>
<g><path style="opacity:1" fill="#dcbc76" d="M 300.5,256.5 C 300.167,256.5 299.833,256.5 299.5,256.5C 297.007,257.774 294.341,258.44 291.5,258.5C 291.5,258.167 291.5,257.833 291.5,257.5C 294.449,255.501 297.449,255.168 300.5,256.5 Z"/></g>
<g><path style="opacity:1" fill="#eebd75" d="M 322.5,253.5 C 324.041,254.558 325.041,256.058 325.5,258C 325.318,260.578 324.318,261.078 322.5,259.5C 322.5,257.5 322.5,255.5 322.5,253.5 Z"/></g>
<g><path style="opacity:1" fill="#e9c06f" d="M 339.5,258.5 C 339.5,259.167 339.167,259.5 338.5,259.5C 336.628,260.511 334.628,261.345 332.5,262C 333.056,262.383 333.389,262.883 333.5,263.5C 332.833,263.5 332.167,263.5 331.5,263.5C 331.615,261.053 332.615,259.053 334.5,257.5C 336.726,255.82 338.393,256.153 339.5,258.5 Z"/></g>
<g><path style="opacity:1" fill="#d7c091" d="M 358.5,256.5 C 355.488,259.369 356.155,260.702 360.5,260.5C 357.604,263.406 355.604,262.739 354.5,258.5C 355.577,257.295 356.91,256.628 358.5,256.5 Z"/></g>
<g><path style="opacity:1" fill="#e3bd7d" d="M 359.5,256.5 C 361.966,255.366 364.633,255.199 367.5,256C 369.324,256.66 370.657,257.827 371.5,259.5C 371.5,259.833 371.5,260.167 371.5,260.5C 371.167,260.5 370.833,260.5 370.5,260.5C 370.103,259.475 369.437,259.308 368.5,260C 368.347,261.209 368.014,262.375 367.5,263.5C 367.167,263.5 366.833,263.5 366.5,263.5C 365.313,261.025 363.313,260.025 360.5,260.5C 361.051,257.91 362.384,257.244 364.5,258.5C 365.308,258.192 365.975,257.692 366.5,257C 364.19,256.503 361.857,256.337 359.5,256.5 Z"/></g>
<g><path style="opacity:0.976" fill="#debd7f" d="M 169.5,256.5 C 170.449,255.848 171.615,255.514 173,255.5C 175.008,255.307 176.508,255.974 177.5,257.5C 177.232,259.099 177.566,260.432 178.5,261.5C 178.5,262.5 178.5,263.5 178.5,264.5C 177.009,261.909 174.675,260.909 171.5,261.5C 172.952,260.698 174.618,260.198 176.5,260C 175.663,258.989 175.33,257.822 175.5,256.5C 173.5,256.5 171.5,256.5 169.5,256.5 Z"/></g>
<g><path style="opacity:1" fill="#e3be80" d="M 179.5,250.5 C 180.568,249.566 181.901,249.232 183.5,249.5C 183.826,258.017 183.493,266.35 182.5,274.5C 182.5,272.833 182.5,271.167 182.5,269.5C 183.123,262.745 182.456,256.412 180.5,250.5C 180.167,250.5 179.833,250.5 179.5,250.5 Z"/></g>
<g><path style="opacity:1" fill="#e1ba7f" d="M 209.5,256.5 C 210.833,256.5 211.5,257.167 211.5,258.5C 213.046,260.882 213.713,263.549 213.5,266.5C 215.167,266.5 216.833,266.5 218.5,266.5C 218.5,265.5 218.5,264.5 218.5,263.5C 219.434,264.568 219.768,265.901 219.5,267.5C 214.833,267.5 210.167,267.5 205.5,267.5C 207.369,266.835 209.369,266.169 211.5,265.5C 209.604,264.534 207.604,264.201 205.5,264.5C 205.5,264.167 205.5,263.833 205.5,263.5C 207.857,263.663 210.19,263.497 212.5,263C 209.987,259.868 207.32,259.701 204.5,262.5C 204.5,262.167 204.5,261.833 204.5,261.5C 206.112,259.667 207.778,258 209.5,256.5 Z"/></g>
<g><path style="opacity:1" fill="#d6b987" d="M 236.5,257.5 C 235.292,256.766 233.959,256.433 232.5,256.5C 232.5,258.5 232.5,260.5 232.5,262.5C 231.519,260.604 230.519,258.604 229.5,256.5C 230.667,256.167 231.833,255.833 233,255.5C 234.681,255.608 235.848,256.275 236.5,257.5 Z"/></g>
<g><path style="opacity:1" fill="#ebbf6d" d="M 299.5,256.5 C 299.5,257.833 299.5,259.167 299.5,260.5C 297.265,260.205 295.265,260.539 293.5,261.5C 292.833,261.5 292.167,261.5 291.5,261.5C 291.5,260.5 291.5,259.5 291.5,258.5C 294.341,258.44 297.007,257.774 299.5,256.5 Z"/></g>
<g><path style="opacity:1" fill="#ebbf6b" d="M 205.5,256.5 C 206.833,256.5 208.167,256.5 209.5,256.5C 207.778,258 206.112,259.667 204.5,261.5C 202.938,261.733 201.605,262.4 200.5,263.5C 201.002,260.331 202.669,257.998 205.5,256.5 Z"/></g>
<g><path style="opacity:1" fill="#e5bd79" d="M 236.5,257.5 C 237.441,259.05 238.107,260.716 238.5,262.5C 237.265,262.279 236.265,261.612 235.5,260.5C 234.534,262.396 234.201,264.396 234.5,266.5C 233.326,265.486 232.66,264.153 232.5,262.5C 232.5,260.5 232.5,258.5 232.5,256.5C 233.959,256.433 235.292,256.766 236.5,257.5 Z"/></g>
<g><path style="opacity:1" fill="#e4ba7b" d="M 299.5,256.5 C 299.833,256.5 300.167,256.5 300.5,256.5C 302.632,256.554 303.965,257.554 304.5,259.5C 303.85,259.196 303.183,258.863 302.5,258.5C 301.227,259.257 301.227,259.923 302.5,260.5C 302.158,261.338 301.492,261.672 300.5,261.5C 299.833,261.5 299.167,261.5 298.5,261.5C 296.833,261.5 295.167,261.5 293.5,261.5C 295.265,260.539 297.265,260.205 299.5,260.5C 299.5,259.167 299.5,257.833 299.5,256.5 Z"/></g>
<g><path style="opacity:1" fill="#eec070" d="M 358.5,256.5 C 358.833,256.5 359.167,256.5 359.5,256.5C 361.857,256.337 364.19,256.503 366.5,257C 365.975,257.692 365.308,258.192 364.5,258.5C 362.384,257.244 361.051,257.91 360.5,260.5C 356.155,260.702 355.488,259.369 358.5,256.5 Z"/></g>
<g><path style="opacity:1" fill="#e4bc7a" d="M 132.5,255.5 C 131.756,258.95 133.09,260.616 136.5,260.5C 135.833,262.167 135.167,263.833 134.5,265.5C 134.167,265.5 133.833,265.5 133.5,265.5C 134.726,261.753 133.393,260.753 129.5,262.5C 130.264,259.982 131.264,257.649 132.5,255.5 Z"/></g>
<g><path style="opacity:1" fill="#e0ba89" d="M 246.5,256.5 C 246.871,260.003 245.871,263.003 243.5,265.5C 243.167,265.5 242.833,265.5 242.5,265.5C 243.463,262.256 244.796,259.256 246.5,256.5 Z"/></g>
<g><path style="opacity:1" fill="#e6bf78" d="M 266.5,256.5 C 267.167,279.167 267.833,279.167 268.5,256.5C 268.833,256.5 269.167,256.5 269.5,256.5C 269.5,262.5 269.5,268.5 269.5,274.5C 268.167,274.5 266.833,274.5 265.5,274.5C 265.177,268.31 265.51,262.31 266.5,256.5 Z"/></g>
<g><path style="opacity:1" fill="#eebf6b" d="M 266.5,256.5 C 267.167,256.5 267.833,256.5 268.5,256.5C 267.833,279.167 267.167,279.167 266.5,256.5 Z"/></g>
<g><path style="opacity:1" fill="#eebd6a" d="M 143.5,260.5 C 144.167,260.833 144.833,261.167 145.5,261.5C 145.584,264.327 146.25,266.994 147.5,269.5C 147.5,270.833 146.833,271.5 145.5,271.5C 145.269,268.937 143.935,267.27 141.5,266.5C 141.5,265.167 141.5,263.833 141.5,262.5C 141.131,260.007 141.797,259.34 143.5,260.5 Z"/></g>
<g><path style="opacity:1" fill="#ebc06e" d="M 165.5,261.5 C 166.5,261.5 167.5,261.5 168.5,261.5C 168.5,262.5 168.5,263.5 168.5,264.5C 166.958,265.301 165.292,265.634 163.5,265.5C 163.989,264.005 164.655,262.671 165.5,261.5 Z"/></g>
<g><path style="opacity:1" fill="#e8bd74" d="M 238.5,262.5 C 239.313,264.261 240.313,265.928 241.5,267.5C 241.5,267.833 241.5,268.167 241.5,268.5C 240.417,268.539 239.417,268.873 238.5,269.5C 237.824,268.398 237.158,267.398 236.5,266.5C 235.833,266.5 235.167,266.5 234.5,266.5C 234.201,264.396 234.534,262.396 235.5,260.5C 236.265,261.612 237.265,262.279 238.5,262.5 Z"/></g>
<g><path style="opacity:1" fill="#e4be76" d="M 248.5,265.5 C 247.833,265.5 247.167,265.5 246.5,265.5C 246.631,264.761 246.464,264.094 246,263.5C 245.583,264.756 244.75,265.423 243.5,265.5C 245.871,263.003 246.871,260.003 246.5,256.5C 248.364,255.207 250.364,255.207 252.5,256.5C 251.311,259.634 249.978,262.634 248.5,265.5 Z"/></g>
<g><path style="opacity:0.444" fill="#d9bc89" d="M 291.5,257.5 C 289.958,256.699 288.292,256.366 286.5,256.5C 286.5,259.5 286.5,262.5 286.5,265.5C 286.5,268.167 286.5,270.833 286.5,273.5C 286.167,273.5 285.833,273.5 285.5,273.5C 285.5,267.5 285.5,261.5 285.5,255.5C 288.082,255.025 290.082,255.692 291.5,257.5 Z"/></g>
<g><path style="opacity:0.997" fill="#eec167" d="M 302.5,260.5 C 304.176,261.183 304.843,262.517 304.5,264.5C 303.167,264.833 301.833,265.167 300.5,265.5C 300.5,264.167 300.5,262.833 300.5,261.5C 301.492,261.672 302.158,261.338 302.5,260.5 Z"/></g>
<g><path style="opacity:1" fill="#e9bf67" d="M 178.5,264.5 C 178.5,263.5 178.5,262.5 178.5,261.5C 179.167,261.5 179.5,261.167 179.5,260.5C 180.117,260.389 180.617,260.056 181,259.5C 181.667,262.167 181.667,264.833 181,267.5C 180.764,265.881 179.931,264.881 178.5,264.5 Z"/></g>
<g><path style="opacity:1" fill="#e9c06e" d="M 211.5,258.5 C 212.552,258.351 213.552,258.517 214.5,259C 215.579,260.859 216.912,262.359 218.5,263.5C 218.5,264.5 218.5,265.5 218.5,266.5C 216.833,266.5 215.167,266.5 213.5,266.5C 213.713,263.549 213.046,260.882 211.5,258.5 Z"/></g>
<g><path style="opacity:0.768" fill="#c6ac8a" d="M 269.5,255.5 C 269.5,255.833 269.5,256.167 269.5,256.5C 269.167,256.5 268.833,256.5 268.5,256.5C 267.833,256.5 267.167,256.5 266.5,256.5C 265.51,262.31 265.177,268.31 265.5,274.5C 265.5,274.833 265.5,275.167 265.5,275.5C 264.509,269.021 264.176,262.354 264.5,255.5C 266.167,255.5 267.833,255.5 269.5,255.5 Z"/></g>
<g><path style="opacity:0.928" fill="#d9c09c" d="M 265.5,275.5 C 265.5,275.167 265.5,274.833 265.5,274.5C 266.833,274.5 268.167,274.5 269.5,274.5C 269.5,268.5 269.5,262.5 269.5,256.5C 269.5,256.167 269.5,255.833 269.5,255.5C 270.499,261.408 270.833,268.074 270.5,275.5C 268.833,275.5 267.167,275.5 265.5,275.5 Z"/></g>
<g><path style="opacity:1" fill="#ecbf64" d="M 323.5,261.5 C 324.5,261.5 325.5,261.5 326.5,261.5C 326.461,262.583 326.127,263.583 325.5,264.5C 327.184,265.15 328.517,266.15 329.5,267.5C 328.833,267.5 328.167,267.5 327.5,267.5C 326.222,267.782 325.222,268.449 324.5,269.5C 323.527,267.052 323.194,264.385 323.5,261.5 Z"/></g>
<g><path style="opacity:1" fill="#e1c07d" d="M 333.5,257.5 C 333.833,257.5 334.167,257.5 334.5,257.5C 332.615,259.053 331.615,261.053 331.5,263.5C 329.544,265.175 328.211,264.842 327.5,262.5C 329.5,260.833 331.5,259.167 333.5,257.5 Z"/></g>
<g><path style="opacity:1" fill="#efbe6b" d="M 370.5,260.5 C 370.5,262.833 370.5,265.167 370.5,267.5C 370.167,267.5 369.833,267.5 369.5,267.5C 369.473,265.801 368.806,264.467 367.5,263.5C 368.014,262.375 368.347,261.209 368.5,260C 369.437,259.308 370.103,259.475 370.5,260.5 Z"/></g>
<g><path style="opacity:1" fill="#ddbe7e" d="M 145.5,261.5 C 147.592,264.088 148.925,267.088 149.5,270.5C 148.833,270.167 148.167,269.833 147.5,269.5C 146.25,266.994 145.584,264.327 145.5,261.5 Z"/></g>
<g><path style="opacity:1" fill="#f1ba71" d="M 204.5,261.5 C 204.5,261.833 204.5,262.167 204.5,262.5C 204.5,263.167 204.833,263.5 205.5,263.5C 205.5,263.833 205.5,264.167 205.5,264.5C 203.952,264.821 203.285,265.821 203.5,267.5C 202.5,267.5 201.5,267.5 200.5,267.5C 200.5,266.167 200.5,264.833 200.5,263.5C 201.605,262.4 202.938,261.733 204.5,261.5 Z"/></g>
<g><path style="opacity:1" fill="#e8c165" d="M 205.5,264.5 C 207.604,264.201 209.604,264.534 211.5,265.5C 209.369,266.169 207.369,266.835 205.5,267.5C 204.833,267.5 204.5,267.833 204.5,268.5C 203.5,269.167 202.5,269.833 201.5,270.5C 200.596,269.791 200.263,268.791 200.5,267.5C 201.5,267.5 202.5,267.5 203.5,267.5C 203.285,265.821 203.952,264.821 205.5,264.5 Z"/></g>
<g><path style="opacity:1" fill="#ebbf6d" d="M 246.5,265.5 C 246.631,266.239 246.464,266.906 246,267.5C 245.31,266.262 244.81,266.262 244.5,267.5C 243.5,268.167 242.5,268.833 241.5,269.5C 241.5,269.167 241.5,268.833 241.5,268.5C 241.5,268.167 241.5,267.833 241.5,267.5C 241.328,266.508 241.662,265.842 242.5,265.5C 242.833,265.5 243.167,265.5 243.5,265.5C 244.75,265.423 245.583,264.756 246,263.5C 246.464,264.094 246.631,264.761 246.5,265.5 Z"/></g>
<g><path style="opacity:1" fill="#ebbe67" d="M 365.5,263.5 C 365.833,263.5 366.167,263.5 366.5,263.5C 366.833,263.5 367.167,263.5 367.5,263.5C 368.806,264.467 369.473,265.801 369.5,267.5C 368.833,267.5 368.167,267.5 367.5,267.5C 366.432,266.566 365.099,266.232 363.5,266.5C 364.551,265.778 365.218,264.778 365.5,263.5 Z"/></g>
<g><path style="opacity:1" fill="#eebd6c" d="M 326.5,261.5 C 326.833,261.5 327.167,261.5 327.5,261.5C 327.5,261.833 327.5,262.167 327.5,262.5C 328.211,264.842 329.544,265.175 331.5,263.5C 331.843,265.483 331.176,266.817 329.5,267.5C 328.517,266.15 327.184,265.15 325.5,264.5C 326.127,263.583 326.461,262.583 326.5,261.5 Z"/></g>
<g><path style="opacity:0.993" fill="#e8c26b" d="M 331.5,263.5 C 332.167,263.5 332.833,263.5 333.5,263.5C 334.031,266.888 332.697,268.888 329.5,269.5C 329.158,268.662 328.492,268.328 327.5,268.5C 327.5,268.167 327.5,267.833 327.5,267.5C 328.167,267.5 328.833,267.5 329.5,267.5C 331.176,266.817 331.843,265.483 331.5,263.5 Z"/></g>
<g><path style="opacity:1" fill="#e4c271" d="M 365.5,263.5 C 365.218,264.778 364.551,265.778 363.5,266.5C 362.167,266.833 360.833,267.167 359.5,267.5C 359.5,266.833 359.5,266.167 359.5,265.5C 359.5,265.167 359.5,264.833 359.5,264.5C 359.369,263.761 359.536,263.094 360,262.5C 361.699,263.406 363.533,263.739 365.5,263.5 Z"/></g>
<g><path style="opacity:1" fill="#e9be77" d="M 133.5,265.5 C 130.575,262.817 129.909,263.484 131.5,267.5C 133.396,268.466 135.396,268.799 137.5,268.5C 137.5,268.833 137.5,269.167 137.5,269.5C 135.167,269.5 132.833,269.5 130.5,269.5C 129.167,269.5 127.833,269.5 126.5,269.5C 126.707,266.759 127.707,264.426 129.5,262.5C 133.393,260.753 134.726,261.753 133.5,265.5 Z"/></g>
<g><path style="opacity:0.992" fill="#dbba79" d="M 138.5,257.5 C 140.028,258.802 141.028,260.469 141.5,262.5C 141.5,263.833 141.5,265.167 141.5,266.5C 141.5,267.167 141.167,267.5 140.5,267.5C 138.694,266.976 137.028,266.309 135.5,265.5C 137.288,265.785 138.955,265.452 140.5,264.5C 139.423,262.271 138.756,259.937 138.5,257.5 Z"/></g>
<g><path style="opacity:1" fill="#eac16a" d="M 168.5,264.5 C 167.555,266.565 166.888,268.399 166.5,270C 165.106,269.501 163.772,268.667 162.5,267.5C 162.5,267.167 162.5,266.833 162.5,266.5C 163.167,266.5 163.5,266.167 163.5,265.5C 165.292,265.634 166.958,265.301 168.5,264.5 Z"/></g>
<g><path style="opacity:0.32" fill="#d5ba8b" d="M 298.5,261.5 C 299.167,261.5 299.833,261.5 300.5,261.5C 300.5,262.833 300.5,264.167 300.5,265.5C 300.5,268.5 300.5,271.5 300.5,274.5C 301.833,274.5 303.167,274.5 304.5,274.5C 305.483,270.702 305.817,266.702 305.5,262.5C 306.485,266.634 306.818,270.968 306.5,275.5C 304.167,275.5 301.833,275.5 299.5,275.5C 299.774,270.737 299.441,266.07 298.5,261.5 Z"/></g>
<g><path style="opacity:0.122" fill="#dec8a3" d="M 320.5,256.5 C 320.833,256.5 321.167,256.5 321.5,256.5C 321.5,257.5 321.5,258.5 321.5,259.5C 321.5,260.167 321.5,260.833 321.5,261.5C 321.182,266.032 321.515,270.366 322.5,274.5C 322.5,274.833 322.5,275.167 322.5,275.5C 320.544,269.588 319.877,263.255 320.5,256.5 Z"/></g>
<g><path style="opacity:1" fill="#eac069" d="M 133.5,265.5 C 133.833,265.5 134.167,265.5 134.5,265.5C 134.833,265.5 135.167,265.5 135.5,265.5C 137.028,266.309 138.694,266.976 140.5,267.5C 139.791,268.404 138.791,268.737 137.5,268.5C 135.396,268.799 133.396,268.466 131.5,267.5C 129.909,263.484 130.575,262.817 133.5,265.5 Z"/></g>
<g><path style="opacity:1" fill="#e7c074" d="M 141.5,266.5 C 143.935,267.27 145.269,268.937 145.5,271.5C 144.833,271.167 144.167,270.833 143.5,270.5C 141.735,269.539 139.735,269.205 137.5,269.5C 137.5,269.167 137.5,268.833 137.5,268.5C 138.791,268.737 139.791,268.404 140.5,267.5C 141.167,267.5 141.5,267.167 141.5,266.5 Z"/></g>
<g><path style="opacity:0.996" fill="#dcbf83" d="M 205.5,256.5 C 202.669,257.998 201.002,260.331 200.5,263.5C 200.5,264.833 200.5,266.167 200.5,267.5C 200.263,268.791 200.596,269.791 201.5,270.5C 201.733,272.062 202.4,273.395 203.5,274.5C 201.983,274.489 200.816,273.823 200,272.5C 199.088,270.341 198.255,268.175 197.5,266C 197.974,260.837 200.64,257.671 205.5,256.5 Z"/></g>
<g><path style="opacity:1" fill="#dfbc79" d="M 246.5,265.5 C 247.167,265.5 247.833,265.5 248.5,265.5C 247.677,268.48 246.343,271.147 244.5,273.5C 244.5,271.5 244.5,269.5 244.5,267.5C 244.81,266.262 245.31,266.262 246,267.5C 246.464,266.906 246.631,266.239 246.5,265.5 Z"/></g>
<g><path style="opacity:0.996" fill="#e5bc7e" d="M 338.5,259.5 C 337.19,261.148 335.857,262.814 334.5,264.5C 336.278,265.726 337.278,267.393 337.5,269.5C 336.542,269.047 335.708,268.381 335,267.5C 334.503,269.81 334.337,272.143 334.5,274.5C 333.053,272.597 331.386,270.93 329.5,269.5C 332.697,268.888 334.031,266.888 333.5,263.5C 333.389,262.883 333.056,262.383 332.5,262C 334.628,261.345 336.628,260.511 338.5,259.5 Z"/></g>
<g><path style="opacity:1" fill="#e8bf6b" d="M 370.5,260.5 C 370.833,260.5 371.167,260.5 371.5,260.5C 371.963,263.482 372.296,266.482 372.5,269.5C 371.167,269.5 370.5,268.833 370.5,267.5C 370.5,265.167 370.5,262.833 370.5,260.5 Z"/></g>
<g><path style="opacity:0.004" fill="#ffd5d2" d="M 207.5,269.5 C 208.947,268.115 209.947,268.448 210.5,270.5C 209.609,269.89 208.609,269.557 207.5,269.5 Z"/></g>
<g><path style="opacity:1" fill="#e9bf6f" d="M 291.5,261.5 C 291.5,265.833 291.5,270.167 291.5,274.5C 289.585,274.784 287.919,274.451 286.5,273.5C 286.5,270.833 286.5,268.167 286.5,265.5C 288.124,265.36 289.29,266.027 290,267.5C 290.191,265.292 290.691,263.292 291.5,261.5 Z"/></g>
<g><path style="opacity:1" fill="#ebc06c" d="M 304.5,264.5 C 304.5,267.833 304.5,271.167 304.5,274.5C 303.167,274.5 301.833,274.5 300.5,274.5C 300.5,271.5 300.5,268.5 300.5,265.5C 301.833,265.167 303.167,264.833 304.5,264.5 Z"/></g>
<g><path style="opacity:0.443" fill="#dab880" d="M 363.5,266.5 C 365.099,266.232 366.432,266.566 367.5,267.5C 367.5,268.833 367.5,270.167 367.5,271.5C 366.833,271.5 366.167,271.5 365.5,271.5C 366.234,270.292 366.567,268.959 366.5,267.5C 363.031,266.887 361.031,268.221 360.5,271.5C 359.662,271.158 359.328,270.492 359.5,269.5C 359.5,268.833 359.5,268.167 359.5,267.5C 360.833,267.167 362.167,266.833 363.5,266.5 Z M 365.5,271.5 C 363.833,271.5 362.167,271.5 360.5,271.5C 361.031,268.221 363.031,266.887 366.5,267.5C 366.567,268.959 366.234,270.292 365.5,271.5 Z"/></g>
<g><path style="opacity:0.671" fill="#d1b589" d="M 130.5,269.5 C 132.833,269.5 135.167,269.5 137.5,269.5C 139.735,269.205 141.735,269.539 143.5,270.5C 139.5,270.5 135.5,270.5 131.5,270.5C 131.737,271.791 131.404,272.791 130.5,273.5C 130.5,272.167 130.5,270.833 130.5,269.5 Z"/></g>
<g><path style="opacity:1" fill="#ecbd6d" d="M 182.5,269.5 C 182.5,271.167 182.5,272.833 182.5,274.5C 181.167,274.5 179.833,274.5 178.5,274.5C 178.167,273.5 177.5,272.833 176.5,272.5C 177.167,271.833 177.833,271.167 178.5,270.5C 179.708,269.766 181.041,269.433 182.5,269.5 Z"/></g>
<g><path style="opacity:1" fill="#eabc72" d="M 204.5,268.5 C 205.5,269.167 206.5,269.833 207.5,270.5C 207.473,272.199 206.806,273.533 205.5,274.5C 204.833,274.5 204.167,274.5 203.5,274.5C 202.4,273.395 201.733,272.062 201.5,270.5C 202.5,269.833 203.5,269.167 204.5,268.5 Z"/></g>
<g><path style="opacity:1" fill="#ebc068" d="M 236.5,266.5 C 237.158,267.398 237.824,268.398 238.5,269.5C 239.417,268.873 240.417,268.539 241.5,268.5C 241.5,268.833 241.5,269.167 241.5,269.5C 241.046,271.741 241.046,273.741 241.5,275.5C 241.598,278.248 240.598,278.914 238.5,277.5C 238.576,273.616 237.91,269.95 236.5,266.5 Z"/></g>
<g><path style="opacity:1" fill="#e9bf71" d="M 321.5,261.5 C 322.167,261.5 322.833,261.5 323.5,261.5C 323.194,264.385 323.527,267.052 324.5,269.5C 323.766,270.708 323.433,272.041 323.5,273.5C 324.5,273.5 325.5,273.5 326.5,273.5C 325.432,274.434 324.099,274.768 322.5,274.5C 321.515,270.366 321.182,266.032 321.5,261.5 Z"/></g>
<g><path style="opacity:1" fill="#eebd6c" d="M 327.5,267.5 C 327.5,267.833 327.5,268.167 327.5,268.5C 326.549,269.919 326.216,271.585 326.5,273.5C 325.5,273.5 324.5,273.5 323.5,273.5C 323.433,272.041 323.766,270.708 324.5,269.5C 325.222,268.449 326.222,267.782 327.5,267.5 Z"/></g>
<g><path style="opacity:0.996" fill="#d8c18e" d="M 359.5,264.5 C 359.5,264.833 359.5,265.167 359.5,265.5C 355.809,266.336 354.809,268.336 356.5,271.5C 356.5,272.5 356.5,273.5 356.5,274.5C 352.714,271.394 352.714,268.227 356.5,265C 357.448,264.517 358.448,264.351 359.5,264.5 Z"/></g>
<g><path style="opacity:1" fill="#ebbe70" d="M 367.5,267.5 C 368.167,267.5 368.833,267.5 369.5,267.5C 369.833,267.5 370.167,267.5 370.5,267.5C 370.5,268.833 371.167,269.5 372.5,269.5C 372.5,271.167 372.5,272.833 372.5,274.5C 371.5,274.5 370.5,274.5 369.5,274.5C 369.715,272.821 369.048,271.821 367.5,271.5C 367.5,270.167 367.5,268.833 367.5,267.5 Z"/></g>
<g><path style="opacity:0.122" fill="#d9bb85" d="M 371.5,259.5 C 373.238,264.217 373.904,269.217 373.5,274.5C 373.167,274.5 372.833,274.5 372.5,274.5C 372.5,272.833 372.5,271.167 372.5,269.5C 372.296,266.482 371.963,263.482 371.5,260.5C 371.5,260.167 371.5,259.833 371.5,259.5 Z"/></g>
<g><path style="opacity:0.988" fill="#e4c07f" d="M 168.5,261.5 C 169.167,261.5 169.833,261.5 170.5,261.5C 168.893,264.778 169.227,267.778 171.5,270.5C 171.5,270.833 171.5,271.167 171.5,271.5C 170.292,270.766 168.959,270.433 167.5,270.5C 167.5,271.833 167.5,273.167 167.5,274.5C 164.672,273.004 163.006,270.671 162.5,267.5C 163.772,268.667 165.106,269.501 166.5,270C 166.888,268.399 167.555,266.565 168.5,264.5C 168.5,263.5 168.5,262.5 168.5,261.5 Z"/></g>
<g><path style="opacity:1" fill="#eebc6e" d="M 244.5,267.5 C 244.5,269.5 244.5,271.5 244.5,273.5C 243.778,274.551 242.778,275.218 241.5,275.5C 241.046,273.741 241.046,271.741 241.5,269.5C 242.5,268.833 243.5,268.167 244.5,267.5 Z"/></g>
<g><path style="opacity:1" fill="#e6bf78" d="M 337.5,269.5 C 345.692,275.323 344.692,276.99 334.5,274.5C 334.337,272.143 334.503,269.81 335,267.5C 335.708,268.381 336.542,269.047 337.5,269.5 Z"/></g>
<g><path style="opacity:0.984" fill="#efbe71" d="M 359.5,265.5 C 359.5,266.167 359.5,266.833 359.5,267.5C 359.5,268.167 359.5,268.833 359.5,269.5C 358.778,270.551 357.778,271.218 356.5,271.5C 354.809,268.336 355.809,266.336 359.5,265.5 Z"/></g>
<g><path style="opacity:1" fill="#e5c083" d="M 178.5,267.5 C 178.5,268.5 178.5,269.5 178.5,270.5C 177.833,271.167 177.167,271.833 176.5,272.5C 174.585,272.784 172.919,272.451 171.5,271.5C 171.5,271.167 171.5,270.833 171.5,270.5C 174.675,271.091 177.009,270.091 178.5,267.5 Z"/></g>
<g><path style="opacity:1" fill="#edc365" d="M 207.5,269.5 C 208.609,269.557 209.609,269.89 210.5,270.5C 210.567,271.959 210.234,273.292 209.5,274.5C 208.167,274.5 206.833,274.5 205.5,274.5C 206.806,273.533 207.473,272.199 207.5,270.5C 207.5,270.167 207.5,269.833 207.5,269.5 Z"/></g>
<g><path style="opacity:0.965" fill="#dfbe82" d="M 214.5,274.5 C 214.657,273.127 214.49,271.793 214,270.5C 213.023,271.774 212.189,271.774 211.5,270.5C 214.943,268.803 216.776,269.803 217,273.5C 216.329,274.252 215.496,274.586 214.5,274.5 Z"/></g>
<g><path style="opacity:0.99" fill="#e5c077" d="M 359.5,269.5 C 359.328,270.492 359.662,271.158 360.5,271.5C 362.167,271.5 363.833,271.5 365.5,271.5C 362.841,271.917 360.508,272.917 358.5,274.5C 357.833,274.5 357.167,274.5 356.5,274.5C 356.5,273.5 356.5,272.5 356.5,271.5C 357.778,271.218 358.778,270.551 359.5,269.5 Z"/></g>
<g><path style="opacity:0.975" fill="#e9c16a" d="M 126.5,269.5 C 127.833,269.5 129.167,269.5 130.5,269.5C 130.5,270.833 130.5,272.167 130.5,273.5C 130.5,273.833 130.5,274.167 130.5,274.5C 128.801,274.66 127.134,274.494 125.5,274C 126.38,272.644 126.714,271.144 126.5,269.5 Z"/></g>
<g><path style="opacity:0.653" fill="#e2c498" d="M 143.5,270.5 C 144.167,270.833 144.833,271.167 145.5,271.5C 145.5,272.5 145.5,273.5 145.5,274.5C 146.833,274.5 148.167,274.5 149.5,274.5C 149.5,273.167 149.5,271.833 149.5,270.5C 150.601,271.848 151.601,273.348 152.5,275C 146.573,278.145 143.573,276.645 143.5,270.5 Z"/></g>
<g><path style="opacity:0.994" fill="#eabf6b" d="M 171.5,271.5 C 172.919,272.451 174.585,272.784 176.5,272.5C 177.5,272.833 178.167,273.5 178.5,274.5C 178.167,274.5 177.833,274.5 177.5,274.5C 174.167,274.5 170.833,274.5 167.5,274.5C 167.5,273.167 167.5,271.833 167.5,270.5C 168.959,270.433 170.292,270.766 171.5,271.5 Z"/></g>
<g><path style="opacity:1" fill="#ebbf6e" d="M 210.5,270.5 C 210.833,270.5 211.167,270.5 211.5,270.5C 212.189,271.774 213.023,271.774 214,270.5C 214.49,271.793 214.657,273.127 214.5,274.5C 212.833,274.5 211.167,274.5 209.5,274.5C 210.234,273.292 210.567,271.959 210.5,270.5 Z"/></g>
<g><path style="opacity:0.969" fill="#e6c37b" d="M 304.5,259.5 C 305.404,260.209 305.737,261.209 305.5,262.5C 305.817,266.702 305.483,270.702 304.5,274.5C 304.5,271.167 304.5,267.833 304.5,264.5C 304.843,262.517 304.176,261.183 302.5,260.5C 301.227,259.923 301.227,259.257 302.5,258.5C 303.183,258.863 303.85,259.196 304.5,259.5 Z"/></g>
<g><path style="opacity:0.459" fill="#ddc08e" d="M 327.5,268.5 C 328.492,268.328 329.158,268.662 329.5,269.5C 328.711,269.783 328.044,270.283 327.5,271C 327.966,272.299 327.966,273.799 327.5,275.5C 325.833,275.5 324.167,275.5 322.5,275.5C 322.5,275.167 322.5,274.833 322.5,274.5C 324.099,274.768 325.432,274.434 326.5,273.5C 326.216,271.585 326.549,269.919 327.5,268.5 Z"/></g>
<g><path style="opacity:0.98" fill="#efc470" d="M 147.5,269.5 C 148.167,269.833 148.833,270.167 149.5,270.5C 149.5,271.833 149.5,273.167 149.5,274.5C 148.167,274.5 146.833,274.5 145.5,274.5C 145.5,273.5 145.5,272.5 145.5,271.5C 146.833,271.5 147.5,270.833 147.5,269.5 Z"/></g>
<g><path style="opacity:1" fill="#ebbe68" d="M 365.5,271.5 C 366.167,271.5 366.833,271.5 367.5,271.5C 369.048,271.821 369.715,272.821 369.5,274.5C 365.833,274.5 362.167,274.5 358.5,274.5C 360.508,272.917 362.841,271.917 365.5,271.5 Z"/></g>
<g><path style="opacity:1" fill="#d8bd8b" d="M 126.5,269.5 C 126.714,271.144 126.38,272.644 125.5,274C 127.134,274.494 128.801,274.66 130.5,274.5C 128.034,275.634 125.367,275.801 122.5,275C 123.977,273.188 125.31,271.355 126.5,269.5 Z"/></g>
<g><path style="opacity:1" fill="#d9c38b" d="M 167.5,274.5 C 170.833,274.5 174.167,274.5 177.5,274.5C 174.167,277.167 170.833,277.167 167.5,274.5 Z"/></g>
<g><path style="opacity:1" fill="#dbc187" d="M 203.5,274.5 C 204.167,274.5 204.833,274.5 205.5,274.5C 206.833,274.5 208.167,274.5 209.5,274.5C 211.167,274.5 212.833,274.5 214.5,274.5C 210.858,277.011 207.192,277.011 203.5,274.5 Z"/></g>
<g><path style="opacity:0.482" fill="#dbbe80" d="M 234.5,266.5 C 235.167,266.5 235.833,266.5 236.5,266.5C 237.91,269.95 238.576,273.616 238.5,277.5C 237.833,277.5 237.167,277.5 236.5,277.5C 236.923,276.735 237.257,275.902 237.5,275C 236.061,272.295 235.061,269.462 234.5,266.5 Z"/></g>
<g><path style="opacity:1" fill="#dac098" d="M 291.5,261.5 C 292.167,261.5 292.833,261.5 293.5,261.5C 292.559,266.07 292.226,270.737 292.5,275.5C 289.612,276.01 287.279,275.344 285.5,273.5C 285.833,273.5 286.167,273.5 286.5,273.5C 287.919,274.451 289.585,274.784 291.5,274.5C 291.5,270.167 291.5,265.833 291.5,261.5 Z"/></g>
<g><path style="opacity:1" fill="#dabe8c" d="M 356.5,274.5 C 357.167,274.5 357.833,274.5 358.5,274.5C 362.167,274.5 365.833,274.5 369.5,274.5C 370.5,274.5 371.5,274.5 372.5,274.5C 372.833,274.5 373.167,274.5 373.5,274.5C 369.661,275.293 365.661,275.96 361.5,276.5C 359.578,276.199 357.912,275.533 356.5,274.5 Z"/></g>
<g><path style="opacity:1" fill="#e0be7b" d="M 244.5,273.5 C 243.708,280.888 239.708,283.888 232.5,282.5C 232.5,282.167 232.5,281.833 232.5,281.5C 234.167,281.5 235.833,281.5 237.5,281.5C 237.737,280.209 237.404,279.209 236.5,278.5C 236.5,278.167 236.5,277.833 236.5,277.5C 237.167,277.5 237.833,277.5 238.5,277.5C 240.598,278.914 241.598,278.248 241.5,275.5C 242.778,275.218 243.778,274.551 244.5,273.5 Z"/></g>
<g><path style="opacity:1" fill="#dabd8e" d="M 236.5,277.5 C 236.5,277.833 236.5,278.167 236.5,278.5C 234.712,278.215 233.045,278.548 231.5,279.5C 231.863,280.183 232.196,280.85 232.5,281.5C 232.5,281.833 232.5,282.167 232.5,282.5C 229.162,281.807 228.662,280.14 231,277.5C 232.626,277.146 234.459,277.146 236.5,277.5 Z"/></g>
<g><path style="opacity:1" fill="#ecbc69" d="M 236.5,278.5 C 237.404,279.209 237.737,280.209 237.5,281.5C 235.833,281.5 234.167,281.5 232.5,281.5C 232.196,280.85 231.863,280.183 231.5,279.5C 233.045,278.548 234.712,278.215 236.5,278.5 Z"/></g>
</svg>
